<svg width="100%" viewBox="0 0 1440 1202" fill="none" xmlns="http://www.w3.org/2000/svg">
<g clip-path="url(#clip0_307_4727)">
    <path d="M795.621 1141.32L796.501 1156.45H777.397L761.025 1147.09L757.601 1125.85L736.62 1092.55L674.206 1052.17L589.252 1009.68L420.892 925.513L372.117 903.747L359.803 910.303L374.228 995.784L384.197 1020.18L388.114 1043.25L413.82 1090.19L484.103 1118.24L495.632 1119.3L517.668 1130.05L558.831 1153.12L571.039 1159.22L551.888 1169.04L503.63 1159.07L444.464 1170.22L365.878 1132.76L285.627 1105.75L278.954 1103.83L109.034 1013.09L41.894 960.649L25.9915 957.764L-46.7778 918.606L-67.5824 915.369L-71.2531 901.472L-69.4119 877.606L-63.7006 878.838L2.91171 912.132L35.1741 935.74L45.1659 937.921L121.442 994.741L192.241 1033.81L341.356 1089.23L348.17 1083.46L334.531 1045.44L330.344 1004.13L323.143 942.506L310.818 899.642L305.177 887.833L274.24 840.5L246.035 811.135L179.294 768.517L116.375 744.135L20.7844 702.573L-44.1274 670.58L-58.9275 667.297L-62.0822 605.411L-49.2406 606.853L42.9494 642.646L139.045 683.692L152.954 690.904L192.815 716.212L249.846 740.195L266.968 757.423L317.854 788.63L318.382 797.543L422.745 862.572L433.487 863.627L460.754 883.024L616.519 969.562L751.843 1052.17L782.792 1076.02L794.062 1092.02L796.935 1109.86L795.621 1141.32Z" fill="#96A596" stroke="#171615" stroke-miterlimit="10"/>
    <path d="M1201.86 999.549L1235.17 1008.2L1221.8 1051.99L1226.51 1052.25L1236.22 1020L1255.89 1028.13L1260.35 1044.4L1231.5 1144.83L1151 1151.9L1152.83 1133.55L1187.45 1025.24L1191.91 1009.52L1201.86 999.549Z" fill="#EFE8DC" stroke="#171615" stroke-miterlimit="10"/>
    <path d="M1105.28 144.331L1113.67 188.028L1037.8 241.177L1000.04 227.89L1105.28 144.331Z" fill="#EFE8DC" stroke="#171615" stroke-miterlimit="10"/>
    <path d="M1114.71 193.974L1127.66 270.554L1123.82 274.389L1042.7 244.672L1114.71 193.974Z" fill="#EFE8DC" stroke="#171615" stroke-miterlimit="10"/>
    <path d="M1021.37 250.617L999.342 264.608L1000.05 242.572L1021.37 250.617Z" fill="#EFE8DC" stroke="#171615" stroke-miterlimit="10"/>
    <path d="M998.638 286.281L996.538 378.588L1143.39 383.478L1132.91 315.306L998.638 286.281Z" fill="#EFE8DC" stroke="#171615" stroke-miterlimit="10"/>
    <path d="M645.51 297.469L780.118 399.569L725.222 449.212L675.567 497.81L577.326 386.282L645.51 297.469Z" fill="#EFE8DC" stroke="#171615" stroke-miterlimit="10"/>
    <path d="M791.658 402.361L863.688 458.301C863.688 458.301 866.139 479.282 867.183 479.634C868.227 479.985 982.91 542.915 982.91 542.915L988.152 440.475L905.286 403.768L964.029 359.016L916.826 296.426L841.3 357.961L810.527 381.04L791.646 402.373L791.658 402.361Z" fill="#EFE8DC" stroke="#171615" stroke-miterlimit="10"/>
    <path d="M841.302 357.96L869.272 383.831L848.995 410.054L810.541 381.04L841.302 357.96Z" fill="#EFE8DC" stroke="#171615" stroke-miterlimit="10"/>
    <path d="M944.714 378.154L914.293 402.02C914.293 402.02 988.762 434.27 987.977 434.27C987.191 434.27 988.762 396.766 988.762 396.766L944.702 378.143L944.714 378.154Z" fill="#EFE8DC" stroke="#171615" stroke-miterlimit="10"/>
    <path d="M966.21 361.102L949.428 374.999L987.719 391.523L988.762 365.828L974.337 365.042C974.337 365.042 964.639 361.372 966.21 361.114V361.102Z" fill="#EFE8DC" stroke="#171615" stroke-miterlimit="10"/>
    <path d="M785.444 405.855L856.771 461.971L859.398 479.809L863.596 485.579L834.747 517.571L733.526 449.915L785.444 405.855Z" fill="#EFE8DC" stroke="#171615" stroke-miterlimit="10"/>
    <path d="M729.325 455.157L832.128 523.341L784.397 582.072L708.872 527.539L681.605 500.789L729.325 455.157Z" fill="#EFE8DC" stroke="#171615" stroke-miterlimit="10"/>
    <path d="M676.367 507.603L705.205 533.826L690.522 549.036L664.827 522.814L676.367 507.603Z" fill="#EFE8DC" stroke="#171615" stroke-miterlimit="10"/>
    <path d="M648.043 544.838L671.112 569.49L687.894 552.707L661.671 528.584L648.043 544.838Z" fill="#EFE8DC" stroke="#171615" stroke-miterlimit="10"/>
    <path d="M632.305 567.39L655.9 583.128L667.616 572.984L644.888 548.86L632.305 567.39Z" fill="#EFE8DC" stroke="#171615" stroke-miterlimit="10"/>
    <path d="M839.647 616.341L894.18 503.064L867.265 488.03L788.949 585.579L839.647 616.341Z" fill="#EFE8DC" stroke="#171615" stroke-miterlimit="10"/>
    <path d="M898.379 505.152L889.993 527.54L940.692 554.103L950.132 534.529L898.379 505.152Z" fill="#EFE8DC" stroke="#171615" stroke-miterlimit="10"/>
    <path d="M887.896 532.43L914.47 547.464L901.535 578.929L871.805 562.147L887.896 532.43Z" fill="#EFE8DC" stroke="#171615" stroke-miterlimit="10"/>
    <path d="M899.775 655.498L874.302 728.385L943.354 761.421L974.256 689.062L899.775 655.498Z" fill="#EFE8DC" stroke="#171615" stroke-miterlimit="10"/>
    <path d="M902.929 647.805L974.947 681.381L980.893 668.434L983.344 551.311L954.319 538.024L902.929 647.805Z" fill="#EFE8DC" stroke="#171615" stroke-miterlimit="10"/>
    <path d="M797.205 686.952L816.778 701.986L817.259 668.094L797.205 686.952Z" fill="#EFE8DC" stroke="#171615" stroke-miterlimit="10"/>
    <path d="M693.839 617.044L732.657 648.157L688.597 740.464L637.547 725.078L693.839 617.044Z" fill="#EFE8DC" stroke="#171615" stroke-miterlimit="10"/>
    <path d="M735.882 353.409L780.118 399.568L838.943 348.694L781.513 295.193L735.882 353.409Z" fill="#EFE8DC" stroke="#171615" stroke-miterlimit="10"/>
    <path d="M651.539 290.831L729.855 350.618L810.623 244.32L768.322 209.36L722.514 276.148L716.216 271.95L763.771 206.217L735.801 181.038L651.539 290.831Z" fill="#EFE8DC" stroke="#171615" stroke-miterlimit="10"/>
    <path d="M767.616 202.019L767.733 201.866L830.546 122.647L802.928 93.2812L740.338 177.895L767.616 202.019Z" fill="#EFE8DC" stroke="#171615" stroke-miterlimit="10"/>
    <path d="M813.426 240.133L875.312 159.013L833.527 124.746L770.761 206.217L813.426 240.133Z" fill="#EFE8DC" stroke="#171615" stroke-miterlimit="10"/>
    <path d="M816.921 319.845L919.713 192.402L880.906 161.981L784.928 289.952L816.921 319.845Z" fill="#EFE8DC" stroke="#171615" stroke-miterlimit="10"/>
    <path d="M821.633 325.615L841.734 345.716L913.413 288.028L914.468 263.201L939.284 207.613L923.557 196.073L821.633 325.615Z" fill="#EFE8DC" stroke="#171615" stroke-miterlimit="10"/>
    <path d="M942.79 211.46L920.062 264.258L938.24 267.753L977.75 236.288L942.79 211.46Z" fill="#EFE8DC" stroke="#171615" stroke-miterlimit="10"/>
    <path d="M919.359 270.203L919.007 282.787L934.746 272.994L919.359 270.203Z" fill="#EFE8DC" stroke="#171615" stroke-miterlimit="10"/>
    <path d="M921.106 293.27L970.761 358.662L989.982 361.805L989.642 284.533L944.186 273.696L921.106 293.27Z" fill="#EFE8DC" stroke="#171615" stroke-miterlimit="10"/>
    <path d="M951.527 269.499L991.037 279.643L993.828 240.485L984.74 239.781L951.527 269.499Z" fill="#EFE8DC" stroke="#171615" stroke-miterlimit="10"/>
    <path d="M954.672 202.37L982.643 177.895L988.94 205.865L993.831 216.009L991.391 228.241L954.672 202.37Z" fill="#EFE8DC" stroke="#171615" stroke-miterlimit="10"/>
    <path d="M994.181 169.499L985.796 176.5L993.137 210.756L994.181 169.499Z" fill="#EFE8DC" stroke="#171615" stroke-miterlimit="10"/>
    <path d="M985.796 169.158L994.181 163.212V104.469L975.651 126.845L985.796 169.158Z" fill="#EFE8DC" stroke="#171615" stroke-miterlimit="10"/>
    <path d="M970.761 132.44L980.894 172.302L950.824 199.92L931.603 183.842L970.761 132.44Z" fill="#EFE8DC" stroke="#171615" stroke-miterlimit="10"/>
    <path d="M992.783 13.2178H998.026L995.575 97.48L974.254 119.152L960.615 58.3218L992.783 13.2178Z" fill="#EFE8DC" stroke="#171615" stroke-miterlimit="10"/>
    <path d="M1025.21 252.013L999.693 270.542C999.693 270.542 998.298 281.73 999.342 281.73C1000.39 281.73 1132.2 310.404 1132.2 310.404L1129.06 284.533C1129.06 284.533 1119.97 284.181 1113.32 282.786C1106.68 281.39 1025.21 252.013 1025.21 252.013Z" stroke="#171615" stroke-miterlimit="10"/>
    <path d="M791.657 402.36L863.688 458.301C863.688 458.301 866.139 479.281 867.182 479.633C868.226 479.985 982.91 542.915 982.91 542.915L988.152 440.475L905.285 403.768L964.028 359.016L916.825 296.426L841.3 357.96L810.527 381.04L791.646 402.372L791.657 402.36Z" stroke="#171615" stroke-miterlimit="10"/>
    <path d="M661.331 585.579L709.226 536.628L834.746 624.737L819.019 660.4L792.832 682.577L661.331 585.579Z" stroke="#171615" stroke-miterlimit="10"/>
    <path d="M940.69 554.102L897.685 647.113L844.888 620.187L871.802 562.147L887.892 532.43L889.992 527.539L898.377 505.151L950.13 534.529L940.69 554.102Z" stroke="#171615" stroke-miterlimit="10"/>
    <path d="M82.6224 896.405L66.8958 923.414L58.4989 925.771L50.1137 923.942L43.0303 937.581L121.44 994.741L192.239 1033.82L292.932 1071.58L312.341 1024.63L318.111 1013.36L318.369 1000.51L159.719 927.612L145.294 923.942L126.413 911.088L117.77 916.858L82.6224 896.405Z" stroke="#171615" stroke-miterlimit="10"/>
    <path d="M812.664 240.387L874.55 159.268L832.765 125L769.999 206.471L812.664 240.387Z" fill="#EFE8DC" stroke="#171615" stroke-miterlimit="10"/>
    <path d="M1015.84 705.454L995.189 781.249C994.509 783.771 995.998 786.362 998.52 787.019L1075.39 807.179C1077.9 807.836 1080.48 806.323 1081.13 803.813L1101.31 725.203C1101.97 722.647 1100.38 720.043 1097.8 719.457L1021.4 702.112C1018.95 701.561 1016.5 703.027 1015.84 705.454Z" fill="#96A596" stroke="#171615" stroke-miterlimit="10"/>
    <path d="M956.768 63.915L969.704 124.746L927.403 180.686L891.036 150.276L956.768 63.915Z" fill="#EFE8DC" stroke="#171615" stroke-miterlimit="10"/>
    <path d="M859.22 127.549L885.443 147.123L921.458 101.327L897.335 80.3462L859.22 127.549Z" fill="#EFE8DC" stroke="#171615" stroke-miterlimit="10"/>
    <path d="M834.394 107.965L859.221 127.549L893.137 76.8514L878.102 60.0693L834.394 107.965Z" fill="#EFE8DC" stroke="#171615" stroke-miterlimit="10"/>
    <path d="M841.042 35.5942L872.859 57.2667L830.546 104.47L807.126 78.9509L841.042 35.5942Z" fill="#EFE8DC" stroke="#171615" stroke-miterlimit="10"/>
    <path d="M924.601 96.4249L991.038 9.37156L986.839 4.82129L939.284 18.4604L898.379 70.9058L924.601 96.4249Z" fill="#EFE8DC" stroke="#171615" stroke-miterlimit="10"/>
    <path d="M993.489 0.62207L995.928 6.56792L1001.52 0.973896L993.489 0.62207Z" fill="#EFE8DC" stroke="#171615" stroke-miterlimit="10"/>
    <path d="M1058.17 19.1509L1104.31 139.428L1000.48 219.504L1003.27 86.9828L1058.17 19.1509Z" fill="#EFE8DC" stroke="#171615" stroke-miterlimit="10"/>
    <path d="M995.93 383.83L1095.58 387.676L1115.16 464.245L1028.45 470.191L1028.1 474.389H1048.38L1049.43 492.215H992.787L995.93 383.83Z" fill="#EFE8DC" stroke="#171615" stroke-miterlimit="10"/>
    <path d="M1103.27 389.424L1121.8 460.399L1156.42 455.508L1144.53 388.38L1103.27 389.424Z" fill="#EFE8DC" stroke="#171615" stroke-miterlimit="10"/>
    <path d="M992.08 543.97L993.136 496.767H1049.78L1041.03 556.553L992.08 543.97Z" fill="#EFE8DC" stroke="#171615" stroke-miterlimit="10"/>
    <path d="M1052.92 473.335L1054.67 491.876L1045.23 557.257L1141.74 580.677L1130.55 520.538L1164.11 511.449L1156.77 461.455L1122.86 466.697L1107.82 471.587L1052.92 473.335Z" fill="#EFE8DC" stroke="#171615" stroke-miterlimit="10"/>
    <path d="M1148.02 581.381L1136.14 522.99L1164.11 517.748L1175.64 588.019L1148.02 581.381Z" fill="#EFE8DC" stroke="#171615" stroke-miterlimit="10"/>
    <path d="M1094.88 574.731L1082.64 626.836L1142.43 640.815L1143.48 586.271L1094.88 574.731Z" fill="#EFE8DC" stroke="#171615" stroke-miterlimit="10"/>
    <path d="M1089.63 571.94L1078.09 624.738L992.08 602.702V549.212L1089.63 571.94Z" fill="#EFE8DC" stroke="#171615" stroke-miterlimit="10"/>
    <path d="M1149.08 587.667L1147.96 723.905L1201.1 735.093L1195.23 704.449L1185.08 647.805L1175.99 595.02L1149.08 587.667Z" fill="#EFE8DC" stroke="#171615" stroke-miterlimit="10"/>
    <path d="M1080.89 631.023L1075.3 656.906L1141.38 674.731L1141.74 645.014L1080.89 631.023Z" fill="#EFE8DC" stroke="#171615" stroke-miterlimit="10"/>
    <path d="M1070.06 654.454L1074.59 631.726L992.08 608.307L992.784 633.474L1070.06 654.454Z" fill="#EFE8DC" stroke="#171615" stroke-miterlimit="10"/>
    <path d="M992.081 639.068L991.39 665.995L982.934 683.34L1059.5 703.101L1068.65 659.345L992.081 639.068Z" fill="#EFE8DC" stroke="#171615" stroke-miterlimit="10"/>
    <path d="M1074.6 661.796L1063.87 704.672L1142.89 722.498L1142.08 678.578L1074.6 661.796Z" fill="#EFE8DC" stroke="#171615" stroke-miterlimit="10"/>
    <path d="M1167.78 437.589L1186.66 435.231L1223.63 630.33L1196.89 642.914L1167.78 437.589Z" fill="#EFE8DC" stroke="#171615" stroke-miterlimit="10"/>
    <path d="M1226 638.2L1243.04 733.908L1215.77 736.535L1199.51 648.943L1226 638.2Z" fill="#EFE8DC" stroke="#171615" stroke-miterlimit="10"/>
    <path d="M721.118 11.1191L731.074 15.8336L798.038 88.7319L777.586 114.263L696.115 51.1452L721.118 11.1191Z" fill="#EFE8DC" stroke="#171615" stroke-miterlimit="10"/>
    <path d="M692.972 54.4751L653.978 112.69L730.558 173.697L773.211 119.504L692.972 54.4751Z" fill="#EFE8DC" stroke="#171615" stroke-miterlimit="10"/>
    <path d="M649.966 116.877L672.518 132.791L727.755 177.895L644.712 287.501L578.639 234.891L619.721 174.225L649.966 116.877Z" fill="#EFE8DC" stroke="#171615" stroke-miterlimit="10"/>
    <path d="M574.793 241L601.192 260.234L640.702 291.874L603.291 342.573L535.635 289.083L574.793 241Z" fill="#EFE8DC" stroke="#171615" stroke-miterlimit="10"/>
    <path d="M532.303 291.699L506.256 319.329L545.942 355.86L539.645 365.301L573.736 382.61L599.783 346.947L532.303 291.699Z" fill="#EFE8DC" stroke="#171615" stroke-miterlimit="10"/>
    <path d="M503.116 323.164L539.483 355.509L534.229 361.982L485.982 337.683L503.116 323.164Z" fill="#EFE8DC" stroke="#171615" stroke-miterlimit="10"/>
    <path d="M541.394 374.39L505.906 428.407L531.085 442.046L568.144 388.381L541.394 374.39Z" fill="#EFE8DC" stroke="#171615" stroke-miterlimit="10"/>
    <path d="M537.206 371.774L500.311 426.307L442.624 399.392L482.661 338.198L537.206 371.774Z" fill="#EFE8DC" stroke="#171615" stroke-miterlimit="10"/>
    <path d="M382.135 324.396L366.925 368.104L390.18 378.061L433.889 402.712L460.803 360.411L437.911 346.244L382.135 324.396Z" fill="#EFE8DC" stroke="#171615" stroke-miterlimit="10"/>
    <path d="M383.541 321.417L436.502 340.298L463.429 356.74L472.518 343.277L433.184 318.801L394.025 299.568L383.541 321.417Z" fill="#EFE8DC" stroke="#171615" stroke-miterlimit="10"/>
    <path d="M400.498 276.149L394.728 290.48L479.506 333.837L499.267 319.154L565.703 239.782L495.596 197.645L438.248 175.445L400.498 276.149Z" fill="#EFE8DC" stroke="#171615" stroke-miterlimit="10"/>
    <path d="M453.987 132.615L441.052 167.058L499.795 188.555L537.558 209.36L574.441 231.912L599.444 195.896L559.934 177.895L514.478 159.189L453.987 132.615Z" fill="#EFE8DC" stroke="#171615" stroke-miterlimit="10"/>
    <path d="M455.561 125.978L505.04 145.727L573.223 172.993L602.589 189.787L622.69 155.343L554.506 123.526L469.552 86.8076L455.561 125.978Z" fill="#EFE8DC" stroke="#171615" stroke-miterlimit="10"/>
    <path d="M484.233 43.4624L470.418 81.741L563.429 121.779L579.86 88.3905L484.233 43.4624Z" fill="#EFE8DC" stroke="#171615" stroke-miterlimit="10"/>
    <path d="M584.233 90.3145L566.571 122.999L625.314 150.793L643.844 115.834L584.233 90.3145Z" fill="#EFE8DC" stroke="#171615" stroke-miterlimit="10"/>
    <path d="M366.135 42.1494L454.772 80.428L442.188 120.818L350.667 86.198L366.135 42.1494Z" fill="#EFE8DC" stroke="#171615" stroke-miterlimit="10"/>
    <path d="M350.142 91.9673L440.092 125.531L425.139 169.064L333.63 138.385L350.142 91.9673Z" fill="#EFE8DC" stroke="#171615" stroke-miterlimit="10"/>
    <path d="M352.239 408.482L369.549 419.753L359.064 443.618L346.997 436.804L344.112 429.463L352.239 408.482Z" fill="#EFE8DC" stroke="#171615" stroke-miterlimit="10"/>
    <path d="M354.081 405.339L374.534 418.18L360.637 446.502L379.518 457.514L391.316 429.193L395.772 431.819L382.403 460.141L399.701 472.209L431.694 407.438L365.351 372.818L354.081 405.339Z" fill="#EFE8DC" stroke="#171615" stroke-miterlimit="10"/>
    <path d="M422.523 438.633L404.17 475.352L483.354 514.428L505.648 480.594L474.711 465.126L422.523 438.633Z" fill="#EFE8DC" stroke="#171615" stroke-miterlimit="10"/>
    <path d="M425.668 432.605L508.792 475.88L528.729 446.244L473.915 418.966L439.565 403.239L425.668 432.605Z" fill="#EFE8DC" stroke="#171615" stroke-miterlimit="10"/>
    <path d="M459.231 508.916L447.691 535.397L447.96 540.381L462.901 546.409L481.267 518.884L459.231 508.916Z" fill="#EFE8DC" stroke="#171615" stroke-miterlimit="10"/>
    <path d="M401.8 478.237L456.087 507.344L443.503 534.353L444.805 542.222L461.071 549.294L427.507 595.184L362.994 560.318L401.8 478.237Z" fill="#EFE8DC" stroke="#171615" stroke-miterlimit="10"/>
    <path d="M361.422 565.818L332.573 612.494L408.884 641.086L423.309 600.438L361.422 565.818Z" fill="#EFE8DC" stroke="#171615" stroke-miterlimit="10"/>
    <path d="M430.392 605.153L417.539 646.058L469.726 661.269L481.524 636.887L430.392 605.153Z" fill="#EFE8DC" stroke="#171615" stroke-miterlimit="10"/>
    <path d="M436.421 600.953L465.786 618.79L483.096 632.687L525.057 541.166L487.553 522.026L436.421 600.953Z" fill="#EFE8DC" stroke="#171615" stroke-miterlimit="10"/>
    <path d="M512.46 647.641L560.719 559.79L551.794 553.762L525.056 541.167L486.507 633.474L512.46 647.641Z" fill="#EFE8DC" stroke="#171615" stroke-miterlimit="10"/>
    <path d="M486.238 640.558L474.71 662.324L503.02 673.336L510.373 652.097L486.238 640.558Z" fill="#EFE8DC" stroke="#171615" stroke-miterlimit="10"/>
    <path d="M514.045 653.928L505.906 674.65L557.05 694.833L565.705 674.65L514.045 653.928Z" fill="#EFE8DC" stroke="#171615" stroke-miterlimit="10"/>
    <path d="M517.716 648.685L568.32 669.666L586.674 632.431L605.297 594.926L566.221 562.934L517.716 648.685Z" fill="#EFE8DC" stroke="#171615" stroke-miterlimit="10"/>
    <path d="M574.616 678.578L564.12 697.717L587.199 706.114L594.013 685.92L574.616 678.578Z" fill="#EFE8DC" stroke="#171615" stroke-miterlimit="10"/>
    <path d="M598.739 687.233L590.612 707.944L633.089 723.683L639.386 704.543L598.739 687.233Z" fill="#EFE8DC" stroke="#171615" stroke-miterlimit="10"/>
    <path d="M575.404 671.495L641.219 701.13L688.95 614.335L684.224 610.394L629.163 572.644L596.901 637.145L575.404 671.495Z" fill="#EFE8DC" stroke="#171615" stroke-miterlimit="10"/>
    <path d="M625.49 516L586.672 571.588L608.708 588.37L645.415 532.782L625.49 516Z" fill="#EFE8DC" stroke="#171615" stroke-miterlimit="10"/>
    <path d="M600.311 494.491L620.505 512.587L583.271 567.389L561.762 553.234L600.311 494.491Z" fill="#EFE8DC" stroke="#171615" stroke-miterlimit="10"/>
    <path d="M536.853 450.442L550.75 457.256L596.112 490.82L557.048 550.349L492.277 518.614L536.853 450.442Z" fill="#EFE8DC" stroke="#171615" stroke-miterlimit="10"/>
    <path d="M574.873 393.271L538.424 446.244L563.603 459.355L651.712 527.269L670.323 501.316L574.873 393.271Z" fill="#EFE8DC" stroke="#171615" stroke-miterlimit="10"/>
    <path d="M1099.86 84.8841L1121.62 75.9712L1130.81 113.476L1110.87 119.762L1099.86 84.8841Z" fill="#EFE8DC" stroke="#171615" stroke-miterlimit="10"/>
    <path d="M1112.71 123.175L1131.06 117.147L1141.03 170.12L1125.29 180.347L1112.71 123.175Z" fill="#EFE8DC" stroke="#171615" stroke-miterlimit="10"/>
    <path d="M1126.87 73.3563L1144.96 166.965L1185.88 144.155L1168.83 69.9436L1172.5 68.6302L1189.02 140.743L1245.14 108.234L1216.56 36.9072L1126.87 73.3563Z" fill="#EFE8DC" stroke="#171615" stroke-miterlimit="10"/>
    <path d="M1230.97 31.1367L1221.54 34.8074L1249.59 105.348L1286.57 82.2687L1230.97 31.1367Z" fill="#EFE8DC" stroke="#171615" stroke-miterlimit="10"/>
    <path d="M1126.87 187.946L1142.08 177.978L1155.46 254.03L1137.36 255.344L1126.87 187.946Z" fill="#EFE8DC" stroke="#171615" stroke-miterlimit="10"/>
    <path d="M1138.93 259.8L1150.47 332.44L1169.36 327.456L1157.29 257.958L1138.93 259.8Z" fill="#EFE8DC" stroke="#171615" stroke-miterlimit="10"/>
    <path d="M1224.69 129.473L1253.01 179.549L1155.97 220.466L1146.02 174.577L1224.69 129.473Z" fill="#EFE8DC" stroke="#171615" stroke-miterlimit="10"/>
    <path d="M1228.88 127.63L1255.62 176.147L1352.38 140.484L1294.17 87.7686L1228.88 127.63Z" fill="#EFE8DC" stroke="#171615" stroke-miterlimit="10"/>
    <path d="M1157.29 223.868L1168.04 288.908L1206.59 273.17L1390.42 198.173L1374.42 161.465L1355.8 143.1L1157.29 223.868Z" fill="#EFE8DC" stroke="#171615" stroke-miterlimit="10"/>
    <path d="M1168.83 292.309L1173.55 325.087L1431.84 220.724L1428.96 208.926L1403.53 185.319L1390.94 174.834L1395.92 192.93L1397.76 199.744L1290.77 244.59L1168.83 292.309Z" fill="#EFE8DC" stroke="#171615" stroke-miterlimit="10"/>
    <path d="M1151.79 337.413L1170.14 332.699L1187.18 427.891L1165.69 432.078L1151.79 337.413Z" fill="#EFE8DC" stroke="#171615" stroke-miterlimit="10"/>
    <path d="M1178.27 330.6L1192.95 427.621L1211.83 425.264L1217.07 433.391L1219.7 441.261L1335.34 395.113L1291.55 284.71L1178.27 330.6Z" fill="#EFE8DC" stroke="#171615" stroke-miterlimit="10"/>
    <path d="M1297.06 282.353L1308.07 309.889L1341.9 392.228L1396.97 370.978L1407.99 314.862V278.155L1403 240.392L1297.06 282.353Z" fill="#EFE8DC" stroke="#171615" stroke-miterlimit="10"/>
    <path d="M1409.56 238.034L1434.47 227.022L1439.98 259.531V327.972L1428.96 380.946L1415.84 368.104L1405.89 363.636L1414.27 313.032L1418.73 282.61L1409.56 238.034Z" fill="#EFE8DC" stroke="#171615" stroke-miterlimit="10"/>
    <path d="M1406.67 368.104L1428.44 385.671L1378.35 553.234L1346.89 569.758L1377.57 467.482L1406.67 368.104Z" fill="#EFE8DC" stroke="#171615" stroke-miterlimit="10"/>
    <path d="M1394.09 377.274L1385.69 410.839L1293.38 448.343L1285.26 420.807L1394.09 377.274Z" fill="#EFE8DC" stroke="#171615" stroke-miterlimit="10"/>
    <path d="M1280.54 421.065L1290.5 450.443L1228.88 473.511L1221.02 445.189L1280.54 421.065Z" fill="#EFE8DC" stroke="#171615" stroke-miterlimit="10"/>
    <path d="M1230.19 477.967L1235.96 499.734L1300.47 474.039L1293.13 453.844L1230.19 477.967Z" fill="#EFE8DC" stroke="#171615" stroke-miterlimit="10"/>
    <path d="M1250.91 547.722L1319.61 521.769L1302.04 477.451L1236.74 502.888L1250.91 547.722Z" fill="#EFE8DC" stroke="#171615" stroke-miterlimit="10"/>
    <path d="M1298.63 452.014L1312.01 487.678L1369.7 466.955L1383.59 417.922L1298.63 452.014Z" fill="#EFE8DC" stroke="#171615" stroke-miterlimit="10"/>
    <path d="M1314.11 492.919L1323.28 517.57L1328.26 518.614L1358.16 506.816L1367.07 474.038L1314.11 492.919Z" fill="#EFE8DC" stroke="#171615" stroke-miterlimit="10"/>
    <path d="M1354.75 512.844L1253.26 551.662L1254.05 560.317L1282.9 601.222L1337.17 573.428L1354.75 512.844Z" fill="#EFE8DC" stroke="#171615" stroke-miterlimit="10"/>
    <path d="M1333.78 585.228L1287.36 608.038L1313.32 648.427L1333.78 585.228Z" fill="#EFE8DC" stroke="#171615" stroke-miterlimit="10"/>
    <path d="M1194.26 433.133L1210.52 431.292L1250.65 565.291L1276.87 604.625L1230.45 626.133L1194.26 433.133Z" fill="#EFE8DC" stroke="#171615" stroke-miterlimit="10"/>
    <path d="M1230.97 635.315L1281.33 613.549L1311.74 656.554L1308.6 666.78L1296.8 664.681L1287.1 665.994L1240.15 679.106L1230.97 635.315Z" fill="#EFE8DC" stroke="#171615" stroke-miterlimit="10"/>
    <path d="M1384.38 558.734L1397.23 552.448L1441.02 625.605L1343.21 697.459L1384.38 558.734Z" fill="#EFE8DC" stroke="#171615" stroke-miterlimit="10"/>
    <path d="M1348.98 700.344L1378.88 745.448L1477.21 688.018L1462.53 663.895L1411.39 654.196L1348.98 700.344Z" fill="#EFE8DC" stroke="#171615" stroke-miterlimit="10"/>
    <path d="M1444.69 630.589L1460.16 656.812L1417.16 650.256L1444.69 630.589Z" fill="#EFE8DC" stroke="#171615" stroke-miterlimit="10"/>
    <path d="M1565.63 466.944L1563.56 506.9L1562.92 507.545L1487.7 551.652L1490.58 556.12L1542.24 524.385L1544.69 525.781L1547.85 563.543L1548.19 564.587L1444.96 621.677L1401.95 550.35L1565.63 466.944Z" fill="#EFE8DC" stroke="#171615" stroke-miterlimit="10"/>
    <path d="M1435.51 389.6L1452.56 383.83L1494.25 492.661L1387.26 549.821L1435.51 389.6Z" fill="#EFE8DC" stroke="#171615" stroke-miterlimit="10"/>
    <path d="M1567.01 389.811L1475.89 426.049L1454.14 376.489L1440.5 382.259L1448.37 302.535L1445.21 233.835L1451.26 230.692L1547.49 316.174L1564.24 334.117L1567.01 389.811Z" fill="#EFE8DC" stroke="#171615" stroke-miterlimit="10"/>
    <path d="M1359.9 43.6276L1372.5 35.5942L1488.23 191.875L1450.82 211.46L1432.98 195.03L1421.1 166.356L1359.9 43.6276Z" fill="#EFE8DC" stroke="#171615" stroke-miterlimit="10"/>
    <path d="M1332.99 61.1124L1353.96 48.5288L1404.66 149.221L1421.79 183.137L1363.06 132.087L1354.66 108.316L1332.99 61.1124Z" fill="#EFE8DC" stroke="#171615" stroke-miterlimit="10"/>
    <path d="M1305.36 79.2897L1327.04 66.0142L1353.96 123.35L1305.36 79.2897Z" fill="#EFE8DC" stroke="#171615" stroke-miterlimit="10"/>
    <path d="M1247.32 26.1529L1296.27 5.17236L1322.49 59.0134L1298.72 74.0481L1247.32 26.1529Z" fill="#EFE8DC" stroke="#171615" stroke-miterlimit="10"/>
    <path d="M1406.4 69.6853L1457.28 36.6372L1479.31 67.5861L1508.15 109.535L1463.57 147.826L1406.4 69.6853Z" fill="#EFE8DC" stroke="#171615" stroke-miterlimit="10"/>
    <path d="M1028.32 723.001L1015.14 771.377C1014.7 772.984 1015.65 774.637 1017.27 775.06L1066.34 787.925C1067.95 788.347 1069.59 787.385 1070 785.779L1082.88 735.608C1083.3 733.978 1082.28 732.313 1080.64 731.949L1031.87 720.878C1030.31 720.527 1028.74 721.465 1028.32 723.013V723.001Z" fill="#96A596" stroke="#171615" stroke-miterlimit="10"/>
    <path d="M1048.72 767.473C1055.67 767.473 1061.31 761.839 1061.31 754.889C1061.31 747.94 1055.67 742.306 1048.72 742.306C1041.77 742.306 1036.14 747.94 1036.14 754.889C1036.14 761.839 1041.77 767.473 1048.72 767.473Z" fill="#96A596" stroke="#171615" stroke-miterlimit="10"/>
    <path d="M1060.26 710.829L1056.33 726.04L1051.61 742.822" fill="#EFE8DC"/>
    <path d="M1060.26 710.829L1056.33 726.04L1051.61 742.822" stroke="#171615" stroke-miterlimit="10"/>
    <path d="M1040.86 781.37L1037.46 797.366" stroke="#171615" stroke-miterlimit="10"/>
    <path d="M1055.54 765.643L1079.15 806.279" stroke="#171615" stroke-miterlimit="10"/>
    <path d="M1058.69 747.277L1101.7 721.055" stroke="#171615" stroke-miterlimit="10"/>
    <path d="M1018.83 702.174L1042.96 743.607" stroke="#171615" stroke-miterlimit="10"/>
    <path d="M996.024 784.783L1037.46 760.659" stroke="#171615" stroke-miterlimit="10"/>
    <path d="M1006.51 743.35L1036.77 750.89" stroke="#171615" stroke-miterlimit="10"/>
    <path d="M1061.36 757.047L1091.52 764.529" stroke="#171615" stroke-miterlimit="10"/>
    <path d="M1070.38 745.156C1072.99 745.156 1075.1 743.045 1075.1 740.441C1075.1 737.837 1072.99 735.727 1070.38 735.727C1067.78 735.727 1065.67 737.837 1065.67 740.441C1065.67 743.045 1067.78 745.156 1070.38 745.156Z" fill="#96A596" stroke="#171615" stroke-miterlimit="10"/>
    <path d="M1061.6 781.476C1064.2 781.476 1066.32 779.365 1066.32 776.761C1066.32 774.158 1064.2 772.047 1061.6 772.047C1059 772.047 1056.89 774.158 1056.89 776.761C1056.89 779.365 1059 781.476 1061.6 781.476Z" fill="#96A596" stroke="#171615" stroke-miterlimit="10"/>
    <path d="M1025.67 772.434C1028.27 772.434 1030.38 770.323 1030.38 767.719C1030.38 765.116 1028.27 763.005 1025.67 763.005C1023.07 763.005 1020.95 765.116 1020.95 767.719C1020.95 770.323 1023.07 772.434 1025.67 772.434Z" fill="#96A596" stroke="#171615" stroke-miterlimit="10"/>
    <path d="M1034.59 734.401C1037.2 734.401 1039.31 732.29 1039.31 729.687C1039.31 727.083 1037.2 724.972 1034.59 724.972C1031.99 724.972 1029.88 727.083 1029.88 729.687C1029.88 732.29 1031.99 734.401 1034.59 734.401Z" fill="#96A596" stroke="#171615" stroke-miterlimit="10"/>
    <path d="M1037.64 805.013L1015.79 885.956L1055.13 901.518L1067.2 846.446L1070.69 847.677L1069.12 856.414L1096.56 864.283L1096.03 867.778L1068.06 859.217L1057.93 903.09L1113.52 922.323L1143.76 910.607L1144.63 898.891L1143.76 729.147L1107.22 721.63L1084.85 813.058L1037.64 805.013Z" fill="#EFE8DC" stroke="#171615" stroke-miterlimit="10"/>
    <path d="M1148.66 729.499L1148.48 895.572L1188.34 900.122L1187.64 819.355L1186.07 793.132L1190.09 792.428L1191.31 818.475L1216.66 818.651L1203.55 742.258L1180.47 739.983L1148.66 729.499Z" fill="#EFE8DC" stroke="#171615" stroke-miterlimit="10"/>
    <path d="M1217.54 824.07L1191.14 824.246L1193.94 901.694L1209.85 906.069L1227.68 906.585L1220.51 868.306L1223.3 862.712L1217.54 824.07Z" fill="#EFE8DC" stroke="#171615" stroke-miterlimit="10"/>
    <path d="M1118.76 923.719L1138.86 927.741L1143.94 914.278L1118.76 923.719Z" fill="#EFE8DC" stroke="#171615" stroke-miterlimit="10"/>
    <path d="M1149.89 901.166L1143.94 927.388L1198.13 940.148L1206.69 907.815L1192.72 903.968L1189.22 905.892L1149.89 901.166Z" fill="#EFE8DC" stroke="#171615" stroke-miterlimit="10"/>
    <path d="M1210.03 908.332L1228.73 909.727L1230.48 919.695C1230.48 919.695 1217.37 924.41 1212.48 940.852L1201.46 939.632L1210.03 908.343V908.332Z" fill="#EFE8DC" stroke="#171615" stroke-miterlimit="10"/>
    <path d="M1344.36 579.504L1376.88 559.567L1314.65 766.206L1288.78 762.711L1344.36 579.504Z" fill="#EFE8DC" stroke="#171615" stroke-miterlimit="10"/>
    <path d="M979.368 692.194L1011.01 701.283L991.084 779.083C991.084 779.083 988.281 786.073 992.655 789.567C997.029 793.062 1032.52 801.107 1032.52 801.107L1011.89 883.446L948.782 853.729L968.016 815.966L963.641 814.571L945.98 852.333L912.24 833.804L948.782 764.224L979.38 692.194H979.368Z" fill="#EFE8DC" stroke="#171615" stroke-miterlimit="10"/>
    <path d="M872.028 732.923L862.587 756.003L856.29 766.487L913.285 790.094L926.573 758.454L872.028 732.923Z" fill="#EFE8DC" stroke="#171615" stroke-miterlimit="10"/>
    <path d="M930.593 760.542L940.901 765.445L926.218 795.338L917.129 792.019L930.593 760.542Z" fill="#EFE8DC" stroke="#171615" stroke-miterlimit="10"/>
    <path d="M895.284 788.863L884.612 817.185L908.571 833.275L923.606 801.975L895.284 788.863Z" fill="#EFE8DC" stroke="#171615" stroke-miterlimit="10"/>
    <path d="M853.497 771.037L842.485 790.962L880.424 814.921L891.612 786.424L853.497 771.037Z" fill="#EFE8DC" stroke="#171615" stroke-miterlimit="10"/>
    <path d="M739.519 649.189L785.842 684.325L751.574 757.927L694.239 739.749L739.519 649.189Z" fill="#EFE8DC" stroke="#171615" stroke-miterlimit="10"/>
    <path d="M759.092 750.41L756.477 759.674L809.614 777.336L808.043 768.763L759.092 750.41Z" fill="#EFE8DC" stroke="#171615" stroke-miterlimit="10"/>
    <path d="M790.556 688.698L761.542 745.858L809.613 764.388L816.263 707.755L790.556 688.698Z" fill="#EFE8DC" stroke="#171615" stroke-miterlimit="10"/>
    <path d="M844.408 626.636L824.471 659.849L824.999 688.698L813.811 777.499L837.758 786.072L856.124 758.278L895.458 653.563L844.408 626.636Z" fill="#EFE8DC" stroke="#171615" stroke-miterlimit="10"/>
    <path d="M1288.45 768.059L1312.57 771.037L1308.03 786.6L1287.05 775.928L1288.45 768.059Z" fill="#EFE8DC" stroke="#171615" stroke-miterlimit="10"/>
    <path d="M1240.38 682.929L1293.17 669.817L1308.03 672.96L1284.07 756.179L1248.94 722.439L1240.38 682.929Z" fill="#EFE8DC" stroke="#171615" stroke-miterlimit="10"/>
    <path d="M1216.94 741.32L1245.44 738.693L1259.08 801.635L1265.37 812.295L1251.04 867.016L1242.48 876.281L1216.94 741.32Z" fill="#EFE8DC" stroke="#171615" stroke-miterlimit="10"/>
    <path d="M1251.39 733.628L1254.36 733.276L1281.99 761.071L1267.99 806.351L1263.28 799.537L1251.39 733.628Z" fill="#EFE8DC" stroke="#171615" stroke-miterlimit="10"/>
    <path d="M1286 779.6L1277.96 805.306L1301.21 811.944L1306.11 791.667L1302.96 787.469L1286 779.6Z" fill="#EFE8DC" stroke="#171615" stroke-miterlimit="10"/>
    <path d="M1299.11 815.263L1287.74 857.575L1265.19 850.926L1277.79 807.569L1299.11 815.263Z" fill="#EFE8DC" stroke="#171615" stroke-miterlimit="10"/>
    <path d="M1287.23 859.499L1271.31 910.373L1248.25 903.899L1245.44 884.666L1257.16 879.6L1265.03 855.125L1287.23 859.499Z" fill="#EFE8DC" stroke="#171615" stroke-miterlimit="10"/>
    <path d="M1248.41 906.703L1250.68 917.891L1255.59 918.758L1256.81 908.626L1248.41 906.703Z" fill="#EFE8DC" stroke="#171615" stroke-miterlimit="10"/>
    <path d="M1259.95 910.02L1258.2 919.284L1264.5 922.427L1268.52 912.635L1259.95 910.02Z" fill="#EFE8DC" stroke="#171615" stroke-miterlimit="10"/>
    <path d="M1311.88 799.36L1279.54 912.636L1292.82 913.34L1328.84 818.242L1311.88 799.36Z" fill="#EFE8DC" stroke="#171615" stroke-miterlimit="10"/>
    <path d="M1278.14 916.142L1270.62 926.978L1278.31 939.386L1291.43 939.21L1292.64 915.263L1278.14 916.142Z" fill="#EFE8DC" stroke="#171615" stroke-miterlimit="10"/>
    <path d="M1296.49 916.143L1295.1 939.398L1306.46 940.278C1306.46 940.278 1312.93 938.354 1323.24 919.649L1296.49 916.154V916.143Z" fill="#EFE8DC" stroke="#171615" stroke-miterlimit="10"/>
    <path d="M1297.02 913.164L1324.11 915.088L1359.77 862.29L1365.02 859.499L1331.98 820.857L1297.02 913.164Z" fill="#EFE8DC" stroke="#171615" stroke-miterlimit="10"/>
    <path d="M1320.26 770.158L1313.8 794.985L1363.09 849.002L1396.49 799.711L1398.76 779.598L1380.05 751.98L1320.26 770.158Z" fill="#EFE8DC" stroke="#171615" stroke-miterlimit="10"/>
    <path d="M1342.29 701.458L1346.31 700.578L1376.91 747.089L1330.76 764.223L1321.66 765.267L1342.29 701.458Z" fill="#EFE8DC" stroke="#171615" stroke-miterlimit="10"/>
    <path d="M1456.46 703.734L1484.6 749.706L1476.03 800.404L1458.2 808.449L1425.33 763.169L1422.72 765.796L1456.62 811.416L1370.27 856.872L1366.43 852.333L1402.09 798.129L1403.31 778.555L1385.47 748.662L1456.46 703.734Z" fill="#EFE8DC" stroke="#171615" stroke-miterlimit="10"/>
    <path d="M1370.79 864.564L1363.27 868.059L1352.26 887.468L1367.82 897.261L1375.69 887.996L1378.13 889.216L1403.13 905.998L1399.46 907.745L1376.03 891.667L1370.43 899.7L1365.89 900.931L1349.8 889.392L1320.09 937.639L1314.67 943.057H1353.14L1406.8 958.091L1415.89 945.332L1425.51 949.354L1424.46 952.321L1417.46 950.046L1408.72 961.07L1391.77 957.048L1363.97 992.007L1416.07 1028.37L1446.13 978.896L1444.21 963.169L1447.01 963.51L1450.16 978.028L1422.01 1029.07L1469.04 1049L1502.6 949.882L1456.62 934.144L1424.29 906.877L1370.79 864.564Z" fill="#EFE8DC" stroke="#171615" stroke-miterlimit="10"/>
    <path d="M1375.51 860.895L1435.65 906.175L1468.34 867.533L1441.42 826.275L1375.51 860.895Z" fill="#EFE8DC" stroke="#171615" stroke-miterlimit="10"/>
    <path d="M1467.47 880.819L1440.54 908.789L1466.06 928.374L1467.47 880.819Z" fill="#EFE8DC" stroke="#171615" stroke-miterlimit="10"/>
    <path d="M1313.8 946.376L1359.95 990.436L1387.57 955.652L1353.14 946.376H1313.8Z" fill="#EFE8DC" stroke="#171615" stroke-miterlimit="10"/>
    <path d="M1280.4 951.454L1278.66 959.487L1291.43 962.994L1292.12 951.102L1280.4 951.454Z" fill="#EFE8DC" stroke="#171615" stroke-miterlimit="10"/>
    <path d="M1294.92 950.927L1293.87 963.51L1301.73 965.258L1304.7 961.587L1301.73 951.103L1294.92 950.927Z" fill="#EFE8DC" stroke="#171615" stroke-miterlimit="10"/>
    <path d="M1307.86 950.398L1306.28 951.806L1314.14 965.785L1318.52 962.29L1307.86 950.398Z" fill="#EFE8DC" stroke="#171615" stroke-miterlimit="10"/>
    <path d="M1320.79 963.686L1314.49 968.06L1415.54 1104.24L1444.92 1049L1392.29 1024.88L1360.48 1000.75L1320.79 963.686Z" fill="#EFE8DC" stroke="#171615" stroke-miterlimit="10"/>
    <path d="M1277.61 962.466L1300.52 968.763L1280.4 1011.24L1273.94 1016.13L1266.78 1018.76L1264.85 1005.65L1277.61 962.466Z" fill="#EFE8DC" stroke="#171615" stroke-miterlimit="10"/>
    <path d="M1451.15 1195.15L1415.84 1198.27L1357.45 1201.07L1323.98 1201.4L1298.94 1111.76L1290.89 1097.78L1281.44 1062.28L1268.17 1021.9L1276.38 1019.45L1281.97 1014.56L1306.64 964.729L1341.08 1017.01L1413.09 1110.01L1402.25 1126.62L1404.53 1133.44L1418.5 1141.3L1418.15 1143.93L1412.56 1159.83V1176.96L1451.15 1195.15Z" fill="#EFE8DC" stroke="#171615" stroke-miterlimit="10"/>
    <path d="M1416.42 1112.81L1406.1 1126.44L1407.51 1130.29L1421.48 1140.08L1422.01 1145.32L1415.02 1161.59L1415.71 1175.74L1451.73 1192.53L1461.87 1172.78L1416.42 1112.81Z" fill="#EFE8DC" stroke="#171615" stroke-miterlimit="10"/>
    <path d="M1448.94 1048.83L1418.69 1107.39L1451.2 1152.84L1470.61 1117.18L1488.79 1065.26L1466.41 1058.27L1454.53 1080.12L1450.69 1078.02L1461.52 1055.99L1448.94 1048.83Z" fill="#EFE8DC" stroke="#171615" stroke-miterlimit="10"/>
    <path d="M1305.4 1180.48L1281.45 1180.75L1275.51 1137.45L1273.42 1105.46L1280.93 1105.3L1284.44 1112.11L1305.4 1180.48Z" fill="#EFE8DC" stroke="#171615" stroke-miterlimit="10"/>
    <path d="M1273.88 1169.86L1253.28 1172.4L1230.8 1171.34L1250.87 1102.14L1268.86 1106.34L1273.88 1169.86Z" fill="#EFE8DC" stroke="#171615" stroke-miterlimit="10"/>
    <path d="M1263.62 1053.72L1252.78 1094.8L1276.73 1101.63L1263.62 1053.72Z" fill="#EFE8DC" stroke="#171615" stroke-miterlimit="10"/>
    <path d="M1256.89 932.83C1256.89 932.83 1239.32 928.632 1232.24 932.83C1225.15 937.029 1217.03 963.779 1217.03 963.779L1233.02 962.466C1233.02 962.466 1228.82 953.025 1235.38 948.827C1241.94 944.628 1250.57 945.543 1254.01 949.706C1255.4 951.372 1255.9 952.368 1256.06 952.943C1256.2 953.459 1256.63 953.858 1257.15 953.998L1266.57 956.696C1266.57 956.696 1268.67 951.712 1267.89 948.299C1267.1 944.886 1256.88 932.83 1256.88 932.83H1256.89Z" fill="#EFE8DC" stroke="#171615" stroke-miterlimit="10"/>
    <path d="M1237.22 951.712C1237.22 951.712 1232.77 955.125 1235.65 960.625C1238.54 966.125 1241.16 969.022 1247.19 967.708C1253.22 966.395 1253.49 963.78 1254 959.581C1254.52 955.383 1252.69 951.982 1249.02 950.141C1245.35 948.299 1241.68 947.514 1237.22 951.712Z" fill="#EFE8DC" stroke="#171615" stroke-miterlimit="10"/>
    <path d="M1216.42 966.114L1233.6 965.457C1233.6 965.457 1238.18 971.485 1244.08 971.485C1249.98 971.485 1254.18 969.913 1255.49 964.53C1256.81 959.147 1256.81 956.004 1256.81 956.004L1265.99 958.362L1252.88 1002.68L1254.32 1023.92L1236.62 1017.36L1240.04 1004.65L1203.72 994.553L1216.43 966.102L1216.42 966.114Z" fill="#EFE8DC" stroke="#171615" stroke-miterlimit="10"/>
    <path d="M1164.37 946.059L1151.26 997.449L1184.57 983.552L1194.01 951.817L1164.37 946.059Z" fill="#EFE8DC" stroke="#171615" stroke-miterlimit="10"/>
    <path d="M1196.62 952.615L1207.37 956.016L1198.46 977.783L1186.92 981.981L1196.62 952.615Z" fill="#EFE8DC" stroke="#171615" stroke-miterlimit="10"/>
    <path d="M1179.05 992.993L1184.82 998.505L1194.01 986.965L1179.05 992.993Z" fill="#EFE8DC" stroke="#171615" stroke-miterlimit="10"/>
    <path d="M1148.9 1006.1L1172.24 996.664L1180.62 1003.22L1155.46 1077.43L1130.55 1069.83L1148.9 1006.1Z" fill="#EFE8DC" stroke="#171615" stroke-miterlimit="10"/>
    <path d="M1143.92 1008.2L1126.87 1069.03L1101.96 1065.11L1113.5 1022.36L1143.92 1008.2Z" fill="#EFE8DC" stroke="#171615" stroke-miterlimit="10"/>
    <path d="M1136.05 940.02L1160.17 945.262L1147.06 999.29L1120.05 1011.87L1119.01 1000.33L1136.05 940.02Z" fill="#EFE8DC" stroke="#171615" stroke-miterlimit="10"/>
    <path d="M1104.58 933.992L1130.28 940.547L1114.81 1001.39L1115.07 1013.45L1075.73 1031.54L1104.58 933.992Z" fill="#EFE8DC" stroke="#171615" stroke-miterlimit="10"/>
    <path d="M1056.59 1047.01C1056.59 1047.01 1069.45 1049.11 1076.79 1054.09C1084.13 1059.08 1098.3 1063.28 1098.3 1063.28L1108.27 1023.94L1056.61 1047.02L1056.59 1047.01Z" fill="#EFE8DC" stroke="#171615" stroke-miterlimit="10"/>
    <path d="M1099.34 930.849L1068.92 1032.58L1045.31 1044.65L976.354 1001.91L1053.71 917.209L1099.34 930.849Z" fill="#EFE8DC" stroke="#171615" stroke-miterlimit="10"/>
    <path d="M1039.55 1045.97L946.977 1089.23L916.825 1060.91L955.115 1022.63L959.83 1020.26L932.294 998.505L1006.25 896.757L1049.51 913.269L965.072 1003.22L979.239 1009.25L1039.55 1045.97Z" fill="#EFE8DC" stroke="#171615" stroke-miterlimit="10"/>
    <path d="M930.195 1003.75L951.704 1020.26L914.199 1059.08L896.901 1043.08L930.195 1003.75Z" fill="#EFE8DC" stroke="#171615" stroke-miterlimit="10"/>
    <path d="M1048.2 1050.68L1017 1065.63L1033.26 1101.03L1062.89 1109.42L1066.04 1113.09H1072.85L1100.13 1125.16L1124.78 1074.02L1088.59 1064.32L1061.58 1052.25L1048.2 1050.68Z" fill="#EFE8DC" stroke="#171615" stroke-miterlimit="10"/>
    <path d="M1013.32 1066.68L983.167 1081.36L988.679 1098.41L1020.4 1084.24L1013.32 1066.68Z" fill="#EFE8DC" stroke="#171615" stroke-miterlimit="10"/>
    <path d="M949.863 868.962L930.196 901.471L949.347 910.654L974.256 927.964L998.908 894.657L949.863 868.962Z" fill="#EFE8DC" stroke="#171615" stroke-miterlimit="10"/>
    <path d="M310.292 532.512L354.34 560.318L329.173 608.037L288.256 592.31L310.292 532.512Z" fill="#EFE8DC" stroke="#171615" stroke-miterlimit="10"/>
    <path d="M348.052 444.404L349.096 458.571L330.215 477.452L314.477 526.227L354.866 549.822L393.672 474.297L348.052 444.404Z" fill="#EFE8DC" stroke="#171615" stroke-miterlimit="10"/>
    <path d="M425.313 174.752L404.345 164.959L378.122 224.043L379.166 232.791L400.146 242.232L425.313 174.752Z" fill="#EFE8DC" stroke="#171615" stroke-miterlimit="10"/>
    <path d="M381.959 157.619L396.477 162.861L400.148 165.312L374.101 221.428L374.969 235.583L400.5 246.947L385.805 288.908L343.68 271.422L350.318 256.74L370.771 262.685L370.255 259.355L351.198 251.673L366.056 208.657L381.959 157.619Z" fill="#EFE8DC" stroke="#171615" stroke-miterlimit="10"/>
    <path d="M334.064 141.529L317.282 193.798L362.562 206.91L378.64 156.915L334.064 141.529Z" fill="#EFE8DC" stroke="#171615" stroke-miterlimit="10"/>
    <path d="M316.225 196.776L294.552 251.321L341.052 268.279L362.033 210.579L316.225 196.776Z" fill="#EFE8DC" stroke="#171615" stroke-miterlimit="10"/>
    <path d="M295.597 255.519L277.419 304.81L312.215 319.153L331.436 268.795L295.597 255.519Z" fill="#EFE8DC" stroke="#171615" stroke-miterlimit="10"/>
    <path d="M334.063 270.554L384.409 291.523L371.122 320.9L335.986 415.823L320.424 402.008L277.419 381.379L255.219 372.994L280.914 369.323L295.432 370.367L313.258 322.648L334.063 270.554Z" fill="#EFE8DC" stroke="#171615" stroke-miterlimit="10"/>
    <path d="M283.715 310.757L306.795 319.494L308.367 325.791L292.98 366.181L263.955 367.753L263.615 363.554L283.715 310.757Z" fill="#EFE8DC" stroke="#171615" stroke-miterlimit="10"/>
    <path d="M277.065 308.481L280.912 310.228L260.459 367.928L253.997 367.752L277.065 308.481Z" fill="#EFE8DC" stroke="#171615" stroke-miterlimit="10"/>
    <path d="M235.292 291.348L274.098 305.866L251.546 367.577L215.531 357.256L235.292 291.348Z" fill="#EFE8DC" stroke="#171615" stroke-miterlimit="10"/>
    <path d="M250.503 243.276L283.363 254.64L292.452 254.464L273.923 302.887L235.632 288.38L250.503 243.276Z" fill="#EFE8DC" stroke="#171615" stroke-miterlimit="10"/>
    <path d="M216.588 231.912L246.658 242.408L211.51 353.936L176.375 341.177L216.588 231.912Z" fill="#EFE8DC" stroke="#171615" stroke-miterlimit="10"/>
    <path d="M349.096 81.0381L329.687 133.495L262.91 109.712L283.891 53.5957L349.096 81.0381Z" fill="#EFE8DC" stroke="#171615" stroke-miterlimit="10"/>
    <path d="M289.309 123.879L249.975 236.639L219.026 226.67L261.339 114.614L289.309 123.879Z" fill="#EFE8DC" stroke="#171615" stroke-miterlimit="10"/>
    <path d="M291.761 125.625L269.209 191.874L306.444 206.392L329.512 139.252L291.761 125.625Z" fill="#EFE8DC" stroke="#171615" stroke-miterlimit="10"/>
    <path d="M267.627 195.205L252.593 238.561L289.839 251.837L304.698 209.36L267.627 195.205Z" fill="#EFE8DC" stroke="#171615" stroke-miterlimit="10"/>
    <path d="M313.434 17.7563L317.456 29.2962L328.644 27.197L362.385 37.5172L348.921 74.5762L285.64 47.6498L293.333 25.4496L313.434 17.7563Z" fill="#EFE8DC" stroke="#171615" stroke-miterlimit="10"/>
    <path d="M287.915 479.281L271.391 507.603L300.757 520.984L309.412 497.118L287.915 479.281Z" fill="#EFE8DC" stroke="#171615" stroke-miterlimit="10"/>
    <path d="M334.321 424.737L321.209 415.824L311.511 411.896L278.732 471.413L310.197 493.707L334.321 424.737Z" fill="#EFE8DC" stroke="#171615" stroke-miterlimit="10"/>
    <path d="M291.585 400.354L261.422 459.614L275.061 468.269L307.312 410.053L291.585 400.354Z" fill="#EFE8DC" stroke="#171615" stroke-miterlimit="10"/>
    <path d="M254.082 378.846L287.389 397.997L258.023 457.784L227.86 443.887L254.082 378.846Z" fill="#EFE8DC" stroke="#171615" stroke-miterlimit="10"/>
    <path d="M174.885 346.595L158.889 389.6L197.179 399.568L203.207 386.457L240.184 400.354L248.311 378.33L174.885 346.595Z" fill="#EFE8DC" stroke="#171615" stroke-miterlimit="10"/>
    <path d="M157.318 393.798L195.866 402.711L179.084 442.831L172.001 449.656L142.377 434.703L157.318 393.798Z" fill="#EFE8DC" stroke="#171615" stroke-miterlimit="10"/>
    <path d="M205.047 391.699L237.825 403.239L223.928 442.045L212.388 474.038L175.939 450.958L182.753 443.887L205.047 391.699Z" fill="#EFE8DC" stroke="#171615" stroke-miterlimit="10"/>
    <path d="M141.849 437.848L184.854 461.971L169.116 500.004L167.814 504.988L119.297 496.063L141.849 437.848Z" fill="#EFE8DC" stroke="#171615" stroke-miterlimit="10"/>
    <path d="M187.996 464.34L206.091 474.567L192.722 508.389L171.214 504.46L187.996 464.34Z" fill="#EFE8DC" stroke="#171615" stroke-miterlimit="10"/>
    <path d="M226.545 447.289L216.319 475.611L244.641 489.508L266.665 504.46L284.245 479.809L262.209 464.34L226.545 447.289Z" fill="#EFE8DC" stroke="#171615" stroke-miterlimit="10"/>
    <path d="M208.193 476.923L196.395 509.702L228.118 518.615L241.499 490.035L208.193 476.923Z" fill="#EFE8DC" stroke="#171615" stroke-miterlimit="10"/>
    <path d="M244.64 493.178L231.529 519.143L232.314 525.957L217.373 559.521L275.319 589.426L280.303 583.914L298.657 525.171L266.148 511.802L244.64 493.178Z" fill="#EFE8DC" stroke="#171615" stroke-miterlimit="10"/>
    <path d="M117.982 502.103L114.57 511.543L152.602 530.682L162.559 510.23L117.982 502.103Z" fill="#EFE8DC" stroke="#171615" stroke-miterlimit="10"/>
    <path d="M168.598 511.801L156.788 531.468L183.28 544.837L195.864 519.67L168.598 511.801Z" fill="#EFE8DC" stroke="#171615" stroke-miterlimit="10"/>
    <path d="M202.951 514.158L189.054 546.409L212.122 558.218L228.646 523.071L202.951 514.158Z" fill="#EFE8DC" stroke="#171615" stroke-miterlimit="10"/>
    <path d="M108.285 523.341L88.6177 581.814L160.988 610.922L180.397 557.433L108.285 523.341Z" fill="#EFE8DC" stroke="#171615" stroke-miterlimit="10"/>
    <path d="M184.325 561.89L208.977 571.846L193.508 611.45L176.726 616.692L163.873 612.236L184.325 561.89Z" fill="#EFE8DC" stroke="#171615" stroke-miterlimit="10"/>
    <path d="M213.702 572.644L200.849 610.664L259.85 595.454L213.702 572.644Z" fill="#EFE8DC" stroke="#171615" stroke-miterlimit="10"/>
    <path d="M87.3042 587.057L75.2366 615.379L67.8952 623.506L106.444 640.288L121.924 602.537L87.3042 587.057Z" fill="#EFE8DC" stroke="#171615" stroke-miterlimit="10"/>
    <path d="M126.11 604.108L111.685 641.601L143.947 655.768L156.531 615.906L126.11 604.108Z" fill="#EFE8DC" stroke="#171615" stroke-miterlimit="10"/>
    <path d="M162.83 617.478L148.405 657.867L174.1 671.764L185.382 642.656L186.167 626.132L162.83 617.478Z" fill="#EFE8DC" stroke="#171615" stroke-miterlimit="10"/>
    <path d="M190.094 628.76L189.836 643.173L178.296 674.65L239.924 706.115L257.75 655.769L190.094 628.76Z" fill="#EFE8DC" stroke="#171615" stroke-miterlimit="10"/>
    <path d="M186.694 620.363L260.378 649.999L278.204 605.938L269.819 598.867L186.694 620.363Z" fill="#EFE8DC" stroke="#171615" stroke-miterlimit="10"/>
    <path d="M281.875 605.939L262.208 659.44L275.319 662.841L285.815 627.177L309.411 635.832L319.109 635.316L323.05 617.479L281.875 605.939Z" fill="#EFE8DC" stroke="#171615" stroke-miterlimit="10"/>
    <path d="M261.691 662.324L257.493 676.479L265.62 681.991L272.703 667.039L261.691 662.324Z" fill="#EFE8DC" stroke="#171615" stroke-miterlimit="10"/>
    <path d="M287.385 632.161L308.096 638.986L283.187 704.801L264.575 696.146L278.203 663.11L287.385 632.161Z" fill="#EFE8DC" stroke="#171615" stroke-miterlimit="10"/>
    <path d="M255.136 680.149L243.597 708.213L248.839 710.043L255.652 696.931H260.637L264.835 686.177L255.136 680.149Z" fill="#EFE8DC" stroke="#171615" stroke-miterlimit="10"/>
    <path d="M281.615 732.865L287.115 720.011L283.187 707.686L258.019 699.816L251.194 711.356L281.615 732.865Z" fill="#EFE8DC" stroke="#171615" stroke-miterlimit="10"/>
    <path d="M326.463 621.418L323.05 638.716L310.724 640.288L287.117 705.586L290.799 718.44L285.287 734.694L354.773 774.814L403.818 650.784L326.463 621.418Z" fill="#EFE8DC" stroke="#171615" stroke-miterlimit="10"/>
    <path d="M410.373 653.142L383.622 719.226L427.413 733.381L489.041 727.353L501.097 683.563L479.858 677.007L445.508 664.154L410.373 653.142Z" fill="#EFE8DC" stroke="#171615" stroke-miterlimit="10"/>
    <path d="M504.51 684.607L493.498 725.254L547.515 733.382L555.384 704.544L504.51 684.607Z" fill="#EFE8DC" stroke="#171615" stroke-miterlimit="10"/>
    <path d="M558.795 706.115L551.712 733.124L576.363 741.521L585.018 716.342L558.795 706.115Z" fill="#EFE8DC" stroke="#171615" stroke-miterlimit="10"/>
    <path d="M587.636 717.654L580.294 742.306L620.414 760.917L623.041 757.774L722.162 773.243L725.047 764.588L587.636 717.654Z" fill="#EFE8DC" stroke="#171615" stroke-miterlimit="10"/>
    <path d="M731.601 765.116L726.617 775.084L797.427 796.323L801.356 789.239L731.601 765.116Z" fill="#EFE8DC" stroke="#171615" stroke-miterlimit="10"/>
    <path d="M805.026 791.08L801.613 796.85L855.114 815.462L834.392 802.35L805.026 791.08Z" fill="#EFE8DC" stroke="#171615" stroke-miterlimit="10"/>
    <path d="M625.139 763.544L623.04 766.945L642.179 802.35L681.513 842.212L719.018 778.755L676.529 770.1L625.139 763.544Z" fill="#EFE8DC" stroke="#171615" stroke-miterlimit="10"/>
    <path d="M725.574 779.271L750.225 786.355L706.692 856.368L685.712 843.527L725.574 779.271Z" fill="#EFE8DC" stroke="#171615" stroke-miterlimit="10"/>
    <path d="M753.624 789.24L864.555 822.276L893.921 838.015L857.73 896.23L834.392 892.031L758.609 863.979L709.834 856.638L753.624 789.24Z" fill="#EFE8DC" stroke="#171615" stroke-miterlimit="10"/>
    <path d="M897.864 840.899L878.455 874.733L924.344 898.329L943.753 866.336L897.864 840.899Z" fill="#EFE8DC" stroke="#171615" stroke-miterlimit="10"/>
    <path d="M838.592 898.586L825.223 926.38L835.179 932.678L854.33 899.899L838.592 898.586Z" fill="#EFE8DC" stroke="#171615" stroke-miterlimit="10"/>
    <path d="M702.493 859.521L699.608 863.978L696.723 886.788L698.564 906.455L713.505 936.09L734.744 885.744L739.998 865.549L702.493 859.521Z" fill="#EFE8DC" stroke="#171615" stroke-miterlimit="10"/>
    <path d="M744.183 865.808L739.211 884.959L717.175 938.706L752.58 973.583L803.712 893.344L803.982 886.53L757.037 869.22L744.183 865.808Z" fill="#EFE8DC" stroke="#171615" stroke-miterlimit="10"/>
    <path d="M809.227 888.63L808.171 893.345L788.774 924.024L807.385 937.135L821.024 926.381L834.136 897.543L809.227 888.63Z" fill="#EFE8DC" stroke="#171615" stroke-miterlimit="10"/>
    <path d="M786.931 927.437L805.554 940.29L782.733 971.485L774.875 974.898L765.435 985.91L757.038 977.525L760.181 970.699L786.931 927.437Z" fill="#EFE8DC" stroke="#171615" stroke-miterlimit="10"/>
    <path d="M822.596 929.266L832.822 935.821L806.869 973.068L782.734 1001.65L767.793 989.58L775.92 978.31L785.619 975.425L807.913 942.377L822.596 929.266Z" fill="#EFE8DC" stroke="#171615" stroke-miterlimit="10"/>
    <path d="M682.826 847.454L642.178 922.979L672.599 940.547L706.691 943.174L709.576 938.976L695.679 910.912L692.009 897.015L693.838 874.205L695.151 860.565L698.294 856.367L682.826 847.454Z" fill="#EFE8DC" stroke="#171615" stroke-miterlimit="10"/>
    <path d="M712.461 942.905L695.679 973.854L737.898 998.236L749.954 977.783L712.461 942.905Z" fill="#EFE8DC" stroke="#171615" stroke-miterlimit="10"/>
    <path d="M754.154 983.294L743.927 1001.12L772.777 1016.59L779.063 1006.1L769.364 995.092L754.154 983.294Z" fill="#EFE8DC" stroke="#171615" stroke-miterlimit="10"/>
    <path d="M639.294 928.479L632.738 939.761L690.696 970.968L703.549 948.146L675.485 946.317L639.294 928.479Z" fill="#EFE8DC" stroke="#171615" stroke-miterlimit="10"/>
    <path d="M603.115 761.188L619.628 766.43L623.826 778.486L640.608 807.863L678.629 845.356L653.978 890.202L635.108 878.92L632.739 882.86L651.62 893.345L629.068 935.306L517.364 878.404L525.491 865.551L603.373 907.512L607.302 908.813L613.858 895.972L606.516 890.46L607.83 885.476L568.754 865.023L552.757 855.324L554.599 852.439L574.008 861.88L577.936 857.682L582.393 860.039L580.563 866.078L616.227 884.69L618.056 880.492L587.905 863.193L583.448 854.269L574.008 851.912L572.166 856.11L553.555 846.927L546.729 856.638L575.051 873.936L602.588 886.789L600.746 892.031L607.572 896.758L604.159 902.786L528.376 861.352L548.301 827.53L569.539 800.252L583.706 790.553L603.115 761.188Z" fill="#EFE8DC" stroke="#171615" stroke-miterlimit="10"/>
    <path d="M601.017 756.989L579.779 785.827L565.084 798.153L540.961 827.26L523.651 859.781L485.103 836.701L550.929 740.465L582.652 749.12L601.017 756.989Z" fill="#EFE8DC" stroke="#171615" stroke-miterlimit="10"/>
    <path d="M543.586 737.321L515.264 783.211L493.756 768.528L491.398 771.671L513.165 786.096L481.7 833.029L413.516 784.782L427.683 764.06L426.897 747.278L430.568 741.777L430.826 738.107L491.656 731.281L543.586 737.321Z" fill="#EFE8DC" stroke="#171615" stroke-miterlimit="10"/>
    <path d="M382.579 723.939L373.138 743.091L421.643 759.087L421.385 747.805L425.842 737.321L382.579 723.939Z" fill="#EFE8DC" stroke="#171615" stroke-miterlimit="10"/>
    <path d="M371.554 746.492L358.971 775.6L397.261 801.307L420.599 763.016L371.554 746.492Z" fill="#EFE8DC" stroke="#171615" stroke-miterlimit="10"/>
    <path d="M410.63 791.338L401.189 804.192L473.571 847.982L478.544 839.585L410.63 791.338Z" fill="#EFE8DC" stroke="#171615" stroke-miterlimit="10"/>
    <path d="M485.37 842.471L477.242 851.911L513.164 874.463L520.247 863.193L485.37 842.471Z" fill="#EFE8DC" stroke="#171615" stroke-miterlimit="10"/>
    <path d="M807.654 979.096L785.618 1006.63L777.76 1018.69L800.042 1034.43L805.554 1036.53L872.683 1102.61L909.918 1064.06L880.024 1034.95L807.654 979.096Z" fill="#EFE8DC" stroke="#171615" stroke-miterlimit="10"/>
    <path d="M837.806 936.091L811.055 973.853L892.878 1040.72L923.816 1002.69L837.806 936.091Z" fill="#EFE8DC" stroke="#171615" stroke-miterlimit="10"/>
    <path d="M876.612 881.287L840.949 933.733L926.173 996.135L971.547 931.891L941.653 912.224L876.612 881.287Z" fill="#EFE8DC" stroke="#171615" stroke-miterlimit="10"/>
    <path d="M914.374 1066.95L942.438 1093.17L885.794 1117.81L873.996 1107.07L914.374 1066.95Z" fill="#EFE8DC" stroke="#171615" stroke-miterlimit="10"/>
    <path d="M828.624 1078.74L861.403 1107.58L869.8 1122.53L859.573 1126.2L859.045 1130.92L842.263 1140.89L829.41 1141.16L828.624 1078.74Z" fill="#EFE8DC" stroke="#171615" stroke-miterlimit="10"/>
    <path d="M980.201 1085.56L986.229 1101.03L984.657 1107.32L945.581 1124.36L942.438 1139.32L936.926 1138L939.284 1123.32L935.355 1106.01L980.201 1085.56Z" fill="#EFE8DC" stroke="#171615" stroke-miterlimit="10"/>
    <path d="M930.113 1107.58L934.042 1123.32L931.943 1138L910.974 1140.1L897.593 1124.36L930.113 1107.58Z" fill="#EFE8DC" stroke="#171615" stroke-miterlimit="10"/>
    <path d="M991.729 1101.3L989.9 1108.11L999.083 1123.32L1002.23 1135.12L1042.87 1138L1049.16 1110.47L1030.81 1106.8L1021.89 1088.44L991.729 1101.3Z" fill="#EFE8DC" stroke="#171615" stroke-miterlimit="10"/>
    <path d="M986.485 1110.74L994.097 1125.42L997.498 1138L948.465 1141.16L948.207 1128.31L986.485 1110.74Z" fill="#EFE8DC" stroke="#171615" stroke-miterlimit="10"/>
    <path d="M1054.42 1111.78L1062.54 1114.14L1058.09 1140.1L1045.76 1139.06L1054.42 1111.78Z" fill="#EFE8DC" stroke="#171615" stroke-miterlimit="10"/>
    <path d="M1065.68 1117.29L1073.29 1118.61L1099.52 1129.62L1091.65 1144.56L1061.75 1142.2L1065.68 1117.29Z" fill="#EFE8DC" stroke="#171615" stroke-miterlimit="10"/>
    <path d="M1129.41 1076.9L1154.58 1084.51L1134.91 1152.69L1096.36 1146.4L1129.41 1076.9Z" fill="#EFE8DC" stroke="#171615" stroke-miterlimit="10"/>
    <path d="M869.271 1136.96L891.307 1123.85L905.99 1141.16L869.271 1136.96Z" fill="#EFE8DC" stroke="#171615" stroke-miterlimit="10"/>
    <path d="M276.632 30.082L249.882 104.294L203.206 88.0394L208.976 55.519L244.64 42.1496L276.632 30.082Z" fill="#EFE8DC" stroke="#171615" stroke-miterlimit="10"/>
    <path d="M253.295 31.1372L271.132 25.0976L256.438 20.6411L253.295 31.1372Z" fill="#EFE8DC" stroke="#171615" stroke-miterlimit="10"/>
    <path d="M215.006 14.0859L212.648 33.753L228.387 39.5229L250.153 33.2252L251.982 19.8559L215.006 14.0859Z" fill="#EFE8DC" stroke="#171615" stroke-miterlimit="10"/>
    <path d="M211.603 38.9937L209.761 47.9183L223.659 42.4064L211.603 38.9937Z" fill="#EFE8DC" stroke="#171615" stroke-miterlimit="10"/>
    <path d="M82.0611 1.50195L73.4062 40.0503L152.86 67.5865L205.833 47.9195L207.933 37.4233L111.169 3.33145L82.0611 1.50195Z" fill="#EFE8DC" stroke="#171615" stroke-miterlimit="10"/>
    <path d="M162.557 72.0428L199.276 86.4677L204.777 56.5742L162.557 72.0428Z" fill="#EFE8DC" stroke="#171615" stroke-miterlimit="10"/>
    <path d="M164.929 79.3843L153.12 85.94L141.85 115.575L186.696 129.473L198.752 91.9679L164.929 79.3843Z" fill="#EFE8DC" stroke="#171615" stroke-miterlimit="10"/>
    <path d="M202.949 93.54L191.409 129.203L233.628 143.628L246.739 109.536L202.949 93.54Z" fill="#EFE8DC" stroke="#171615" stroke-miterlimit="10"/>
    <path d="M137.122 113.206L148.145 84.6264L157.586 77.285L153.118 74.9277L130.836 84.3684L109.597 91.9678L103.827 96.4243L104.343 105.349L137.122 113.206Z" fill="#EFE8DC" stroke="#171615" stroke-miterlimit="10"/>
    <path d="M140.006 119.504L131.363 151.239L175.67 166.966L186.166 135.759L140.006 119.504Z" fill="#EFE8DC" stroke="#171615" stroke-miterlimit="10"/>
    <path d="M190.622 136.545L232.842 149.398L219.73 182.962L179.341 170.121L190.622 136.545Z" fill="#EFE8DC" stroke="#171615" stroke-miterlimit="10"/>
    <path d="M105.4 109.278L97.5303 130.516L99.1018 137.33L127.424 148.87L135.551 118.976L105.4 109.278Z" fill="#EFE8DC" stroke="#171615" stroke-miterlimit="10"/>
    <path d="M131.094 155.425L175.67 171.691L165.713 209.184L118.24 192.671L131.094 155.425Z" fill="#EFE8DC" stroke="#171615" stroke-miterlimit="10"/>
    <path d="M179.611 174.834L219.731 187.688L206.619 223.867L169.901 210.24L179.611 174.834Z" fill="#EFE8DC" stroke="#171615" stroke-miterlimit="10"/>
    <path d="M115.099 158.581C115.099 158.581 124.282 161.208 126.639 155.696L117.198 188.216L115.099 158.581Z" fill="#EFE8DC" stroke="#171615" stroke-miterlimit="10"/>
    <path d="M117.983 196.858L164.4 213.382L158.103 234.093L110.899 217.839L117.983 196.858Z" fill="#EFE8DC" stroke="#171615" stroke-miterlimit="10"/>
    <path d="M168.598 215.213L202.678 227.023L181.439 291.266L145.518 278.682L168.598 215.213Z" fill="#EFE8DC" stroke="#171615" stroke-miterlimit="10"/>
    <path d="M155.746 236.462L142.376 275.268L99.1019 259.272L110.642 222.037L155.746 236.462Z" fill="#EFE8DC" stroke="#171615" stroke-miterlimit="10"/>
    <path d="M144.733 283.665L128.479 323.257L163.614 337.94L179.083 295.193L144.733 283.665Z" fill="#EFE8DC" stroke="#171615" stroke-miterlimit="10"/>
    <path d="M126.379 330.071L111.427 374.39L146.046 384.886L160.459 343.71L126.379 330.071Z" fill="#EFE8DC" stroke="#171615" stroke-miterlimit="10"/>
    <path d="M98.8446 262.685L94.6461 268.455L82.8483 303.591L123.226 321.158L140.008 279.467L98.8446 262.685Z" fill="#EFE8DC" stroke="#171615" stroke-miterlimit="10"/>
    <path d="M81.5342 308.832L66.3236 351.051L112.741 358.92L123.226 329.027L81.5342 308.832Z" fill="#EFE8DC" stroke="#171615" stroke-miterlimit="10"/>
    <path d="M65.2804 354.992L61.34 363.905L105.928 374.389L110.384 363.377L65.2804 354.992Z" fill="#EFE8DC" stroke="#171615" stroke-miterlimit="10"/>
    <path d="M58.725 368.362L52.4274 400.612L94.1187 412.152L104.615 379.374L58.725 368.362Z" fill="#EFE8DC" stroke="#171615" stroke-miterlimit="10"/>
    <path d="M110.383 378.33L98.0576 411.894L130.05 427.621L145.261 390.386L139.491 385.144L110.383 378.33Z" fill="#EFE8DC" stroke="#171615" stroke-miterlimit="10"/>
    <path d="M97.7882 415.823L80.7481 464.07L73.6647 490.035L101.729 504.718L129.265 431.034L97.7882 415.823Z" fill="#EFE8DC" stroke="#171615" stroke-miterlimit="10"/>
    <path d="M50.5955 403.768L48.4963 414.51L53.4805 419.752L89.1438 429.721L91.5011 416.081L50.5955 403.768Z" fill="#EFE8DC" stroke="#171615" stroke-miterlimit="10"/>
    <path d="M58.724 425.006L53.4818 431.034L42.4579 433.661L65.5377 475.61L65.01 486.622L69.7362 488.991L78.1213 458.3L86.2602 433.661L58.724 425.006Z" fill="#EFE8DC" stroke="#171615" stroke-miterlimit="10"/>
    <path d="M33.5456 441.518L44.2998 451.228L57.4111 474.038L58.7246 483.737L13.8317 459.965L23.847 448.859L33.5456 441.518Z" fill="#EFE8DC" stroke="#171615" stroke-miterlimit="10"/>
    <path d="M5.75161 392.485L-28.0823 438.902L8.37858 456.212L22.006 444.672L32.7601 436.545L5.75161 392.485Z" fill="#EFE8DC" stroke="#171615" stroke-miterlimit="10"/>
    <path d="M13.3494 366.263L8.37695 372.56L36.1712 420.549L46.1278 417.137L43.5126 408.224L52.6835 374.132L13.3494 366.263Z" fill="#EFE8DC" stroke="#171615" stroke-miterlimit="10"/>
    <path d="M15.4491 334.269L17.5483 340.567L61.6086 350.266L76.0217 308.832L73.6645 305.947L51.8982 336.368L15.4491 334.269Z" fill="#EFE8DC" stroke="#171615" stroke-miterlimit="10"/>
    <path d="M18.0778 345.552L16.7643 358.393L56.6262 363.905L60.5549 354.195L18.0778 345.552Z" fill="#EFE8DC" stroke="#171615" stroke-miterlimit="10"/>
    <path d="M16.5027 361.02L54.5233 366.789L54.4764 371.199L14.7905 364.292L16.5027 361.02Z" fill="#EFE8DC" stroke="#171615" stroke-miterlimit="10"/>
    <path d="M38.6102 423.258L41.1082 429.943L49.7631 428.372L53.3048 423.516L48.5786 420.502L38.6102 423.258Z" fill="#EFE8DC" stroke="#171615" stroke-miterlimit="10"/>
    <path d="M-8.32275 328.196L5.04662 366.486L11.743 359.274L13.0448 345.236L9.50308 333.051L-8.32275 328.196Z" fill="#EFE8DC" stroke="#171615" stroke-miterlimit="10"/>
    <path d="M63.3907 500.742L50.4201 564.986L77.1588 577.182L96.8259 517.653L63.3907 500.742Z" fill="#EFE8DC" stroke="#171615" stroke-miterlimit="10"/>
    <path d="M50.2808 570.099L37.1695 595.536L33.1118 612.587L44.9096 619.659L56.4495 617.044L63.7909 609.573L75.7178 580.595L50.2808 570.099Z" fill="#EFE8DC" stroke="#171615" stroke-miterlimit="10"/>
    <path d="M7.67533 472.162L-10.0215 501.528L27.6004 520.022L52.7794 528.935L57.7636 499.827L7.67533 472.162Z" fill="#EFE8DC" stroke="#171615" stroke-miterlimit="10"/>
    <path d="M-12.6032 507.427L-22.7006 534.306L44.9555 562.757L51.1124 533.919L-12.6032 507.427Z" fill="#EFE8DC" stroke="#171615" stroke-miterlimit="10"/>
    <path d="M-24.7999 539.419L-42.7665 579.938L28.959 609.573L36.3004 588.323L44.4276 568.656L-24.7999 539.419Z" fill="#EFE8DC" stroke="#171615" stroke-miterlimit="10"/>
    <path d="M-33.3607 451.1L-37.9579 466.298L-7.79471 484.007L1.64594 469.453L-33.3607 451.1Z" fill="#EFE8DC" stroke="#171615" stroke-miterlimit="10"/>
    <path d="M-45.4303 586.798L27.597 616.293L42.8076 622.72L33.1089 630.061L30.353 637.274L-49.23 606.864L-45.4303 586.798Z" fill="#EFE8DC" stroke="#171615" stroke-miterlimit="10"/>
    <path d="M54.0902 628.49L45.1656 636.887L42.9374 642.657L131.574 680.678L139.572 665.725L54.0902 628.49Z" fill="#EFE8DC" stroke="#171615" stroke-miterlimit="10"/>
    <path d="M145.215 669.666L139.046 683.692L152.955 690.904L192.805 716.212L242.764 738.107L241.58 721.982L182.977 692.089L145.215 669.666Z" fill="#EFE8DC" stroke="#171615" stroke-miterlimit="10"/>
    <path d="M215.227 791.08L242.763 738.107L241.578 721.981L257.446 732.994L249.846 740.206L223.753 798.152L215.227 791.08Z" fill="#EFE8DC" stroke="#171615" stroke-miterlimit="10"/>
    <path d="M139.575 665.725L145.216 669.666L139.047 683.692L115.193 747.806L107.852 743.092L131.577 680.678L139.575 665.725Z" fill="#EFE8DC" stroke="#171615" stroke-miterlimit="10"/>
    <path d="M30.3532 637.274L7.54321 696.802L20.7836 702.572L42.9369 642.657L45.1651 636.887L54.0897 628.49L42.8079 622.72L33.1092 630.061L30.3532 637.274Z" fill="#EFE8DC" stroke="#171615" stroke-miterlimit="10"/>
    <path d="M-44.1153 670.579L7.54442 696.802L6.35995 700.871L-45.03 674.778L-44.1153 670.579Z" fill="#EFE8DC" stroke="#171615" stroke-miterlimit="10"/>
    <path d="M20.7846 702.573L18.2984 705.716L79 736.536L109.022 747.935L177.335 775.999L228.08 805.634L244.206 815.99L276.069 848.369L297.566 881.675L307.921 902.257L317.104 933.593L323.66 1001.25L330.344 1004.13L323.132 942.518L310.806 899.642L305.177 887.844L274.228 840.512L246.035 811.134L208.284 786.612L179.305 768.528L116.364 744.135L97.7523 736.794L64.7042 722.639L20.7846 702.573Z" fill="#EFE8DC" stroke="#171615" stroke-miterlimit="10"/>
    <path d="M297.566 1072.97L341.357 1089.23L348.182 1083.46L334.543 1045.44L330.345 1004.13L323.66 1001.25L316.448 1032.07L297.566 1072.97Z" fill="#EFE8DC" stroke="#171615" stroke-miterlimit="10"/>
    <path d="M216.799 804.449L191.632 854.795L203.43 861.621L215.486 845.097L239.093 820.188L216.799 804.449Z" fill="#EFE8DC" stroke="#171615" stroke-miterlimit="10"/>
    <path d="M244.335 823.858L233.581 832.771L255.875 853.224L276.856 878.661L289.697 889.415L294.682 884.689L271.086 848.498L244.335 823.858Z" fill="#EFE8DC" stroke="#171615" stroke-miterlimit="10"/>
    <path d="M230.181 835.128L218.641 846.141L206.843 863.192L243.293 901.741L252.733 910.126L252.205 918.523L263.476 926.122L288.655 905.411L292.325 898.856L282.627 888.36L272.916 879.974L251.42 854.537L230.181 835.128Z" fill="#EFE8DC" stroke="#171615" stroke-miterlimit="10"/>
    <path d="M296.78 887.046L291.409 890.986L298.223 901.471L303.465 900.556L296.78 887.046Z" fill="#EFE8DC" stroke="#171615" stroke-miterlimit="10"/>
    <path d="M304.392 904.755L294.025 904.228L266.489 927.964L275.015 951.173L270.171 976.082L316.976 996.265L313.833 938.19L304.392 904.755Z" fill="#EFE8DC" stroke="#171615" stroke-miterlimit="10"/>
    <path d="M251.418 923.108L234.636 956.673L264.529 973.197L269.901 950.246L263.744 933.464L251.418 923.108Z" fill="#EFE8DC" stroke="#171615" stroke-miterlimit="10"/>
    <path d="M188.477 859.381L160.425 919.18L230.438 956.285L247.748 922.322L247.35 912.225L201.46 865.151L188.477 859.381Z" fill="#EFE8DC" stroke="#171615" stroke-miterlimit="10"/>
    <path d="M212.343 800.25L155.183 920.88L125.548 906.455L117.55 905.927L115.978 911.04L64.4477 882.859L103.653 780.454L112.308 753.974L163.569 774.426L212.343 800.25Z" fill="#EFE8DC" stroke="#171615" stroke-miterlimit="10"/>
    <path d="M106.008 750.562L97.8812 780.854L81.6268 773.77L93.155 746.492L106.008 750.562Z" fill="#EFE8DC" stroke="#171615" stroke-miterlimit="10"/>
    <path d="M77.8143 741.25L90.2689 745.976L78.9988 772.985L67.0719 768.786L77.8143 741.25Z" fill="#EFE8DC" stroke="#171615" stroke-miterlimit="10"/>
    <path d="M63.7888 734.565L75.0707 739.679L54.3482 794.094L42.1516 786.483L63.7888 734.565Z" fill="#EFE8DC" stroke="#171615" stroke-miterlimit="10"/>
    <path d="M61.034 731.681L38.482 784.912L-8.19354 764.588L16.1997 711.615L61.034 731.681Z" fill="#EFE8DC" stroke="#171615" stroke-miterlimit="10"/>
    <path d="M65.8893 772.199L56.0499 796.323L58.5479 800.38L66.0183 803.406L76.1157 776.128L65.8893 772.199Z" fill="#EFE8DC" stroke="#171615" stroke-miterlimit="10"/>
    <path d="M81.1 778.098L68.5164 805.106L83.856 812.049L95.5248 781.768L81.1 778.098Z" fill="#EFE8DC" stroke="#171615" stroke-miterlimit="10"/>
    <path d="M40.1938 790.553L32.7116 805.365L76.6429 828.046L82.1431 814.148L59.3331 803.136L51.2059 798.152L40.1938 790.553Z" fill="#EFE8DC" stroke="#171615" stroke-miterlimit="10"/>
    <path d="M-8.5805 767.472L-14.2214 779.41L30.3549 803.006L37.1685 790.024L35.2101 785.696L-8.5805 767.472Z" fill="#EFE8DC" stroke="#171615" stroke-miterlimit="10"/>
    <path d="M-14.7503 784.653L74.0153 830.672L42.0226 919.18L-60.1123 864.635L-41.8877 822.932L-14.7503 784.653Z" fill="#EFE8DC" stroke="#171615" stroke-miterlimit="10"/>
    <path d="M4.13025 704.274L-14.7511 750.164L-46.087 807.464L-48.4442 680.021L-41.1028 681.206L4.13025 704.274Z" fill="#EFE8DC" stroke="#171615" stroke-miterlimit="10"/>
    <path d="M62.9562 886.179L50.6306 919.743L57.1863 922.101L63.742 921.315L79.2223 895.092L62.9562 886.179Z" fill="#EFE8DC" stroke="#171615" stroke-miterlimit="10"/>
    <path d="M39.8901 923.414L25.9813 957.763L32.8067 963.275L50.1165 923.941L39.8901 923.414Z" fill="#EFE8DC" stroke="#171615" stroke-miterlimit="10"/>
    <path d="M-61.8603 869.924L-19.3832 893.262L39.8876 923.414L35.1614 935.739L2.91076 912.143L-63.7015 878.837L-61.8603 869.924Z" fill="#EFE8DC" stroke="#171615" stroke-miterlimit="10"/>
    <path d="M372.13 903.746L359.805 910.302L374.229 995.784L384.198 1020.18L388.127 1043.26L413.822 1090.19L484.104 1118.25L495.644 1119.3L517.669 1130.05L522.911 1125.6L490.66 1108.03L423.532 1084.42L418.278 1072.62L391.011 1022.28L378.686 976.914L372.388 928.655L381.829 919.742L418.806 934.167L420.905 925.512L372.13 903.746Z" fill="#EFE8DC" stroke="#171615" stroke-miterlimit="10"/>
    <path d="M383.669 924.985L376.586 933.113L382.883 977.431H389.955L414.09 938.366L383.669 924.985Z" fill="#EFE8DC" stroke="#171615" stroke-miterlimit="10"/>
    <path d="M426.417 929.184L423.262 935.74L584.797 1016.25L589.253 1009.69L426.417 929.184Z" fill="#EFE8DC" stroke="#171615" stroke-miterlimit="10"/>
    <path d="M418.277 940.981L397.567 976.915L463.651 1014.67L484.89 972.446L418.277 940.981Z" fill="#EFE8DC" stroke="#171615" stroke-miterlimit="10"/>
    <path d="M489.605 976.387L468.109 1017.03L557.003 1065.28L582.182 1020.71L489.605 976.387Z" fill="#EFE8DC" stroke="#171615" stroke-miterlimit="10"/>
    <path d="M393.895 982.942L387.597 994.998L392.054 1015.98L403.066 1036.17L422.475 1001.3L393.895 982.942Z" fill="#EFE8DC" stroke="#171615" stroke-miterlimit="10"/>
    <path d="M427.46 1004.97L406.738 1041.16L427.46 1077.35L458.925 1022.54L427.46 1004.97Z" fill="#EFE8DC" stroke="#171615" stroke-miterlimit="10"/>
    <path d="M464.953 1023.32L433.488 1080.49L487.775 1100.94L514.255 1051.13L464.953 1023.32Z" fill="#EFE8DC" stroke="#171615" stroke-miterlimit="10"/>
    <path d="M521.338 1053.48L492.758 1103.83L515.041 1112.74L524.481 1122.18L554.644 1068.42L521.338 1053.48Z" fill="#EFE8DC" stroke="#171615" stroke-miterlimit="10"/>
    <path d="M562.244 1067.38L586.367 1022.28L670.02 1063.71L643.539 1110.39L562.244 1067.38Z" fill="#EFE8DC" stroke="#171615" stroke-miterlimit="10"/>
    <path d="M559.359 1070.27L528.938 1125.33L604.991 1159.16L624.131 1151.29L641.968 1114.58L559.359 1070.27Z" fill="#EFE8DC" stroke="#171615" stroke-miterlimit="10"/>
    <path d="M673.433 1064.75L646.941 1112.22L714.867 1154.18L752.887 1150.51L750.53 1130.31L730.593 1100.95L703.069 1082.32L673.433 1064.75Z" fill="#EFE8DC" stroke="#171615" stroke-miterlimit="10"/>
    <path d="M592.665 1011.78L589.253 1017.82L671.076 1060.04L723.521 1092.29L734.791 1099.63L751.843 1126.91L755.514 1149.98L761.014 1147.09L757.613 1125.85L736.632 1092.55L674.219 1052.17L592.665 1011.78Z" fill="#EFE8DC" stroke="#171615" stroke-miterlimit="10"/>
    <path d="M526.839 1128.21L525.009 1133.72L558.831 1153.13L562.244 1145.52L526.839 1128.21Z" fill="#EFE8DC" stroke="#171615" stroke-miterlimit="10"/>
    <path d="M645.369 1116.41L630.956 1150.5L697.029 1162.83L704.898 1159.95L682.874 1137.92L645.369 1116.41Z" fill="#EFE8DC" stroke="#171615" stroke-miterlimit="10"/>
    <path d="M466.265 860.483L420.903 925.512L418.804 934.167L423.26 935.739L426.415 929.183L475.448 863.626L466.265 860.483Z" fill="#EFE8DC" stroke="#171615" stroke-miterlimit="10"/>
    <path d="M249.847 740.206L266.97 757.422L317.844 788.629L318.371 797.542L422.735 862.571L433.489 863.626L454.211 878.051L466.267 860.483L355.606 788.887L346.435 783.387L303.689 761.351L257.447 732.994L249.847 740.206Z" fill="#EFE8DC" stroke="#171615" stroke-miterlimit="10"/>
    <path d="M475.451 863.626L460.768 883.036L611.807 967.474L621.247 948.592L499.832 882.766L475.451 863.626Z" fill="#EFE8DC" stroke="#171615" stroke-miterlimit="10"/>
    <path d="M627.015 951.208L592.665 1011.78L589.253 1009.69L621.245 948.592L627.015 951.208Z" fill="#EFE8DC" stroke="#171615" stroke-miterlimit="10"/>
    <path d="M680.776 1006.81L616.532 969.561L627.017 951.207L727.979 1008.38L784.881 1040.37L791.964 1046.93L795.893 1053.48L811.632 1073.94L817.659 1088.62L818.973 1141.06L795.635 1141.32L796.949 1109.86L794.064 1092.03L782.782 1076.03L751.845 1052.17L680.776 1006.81Z" fill="#EFE8DC" stroke="#171615" stroke-miterlimit="10"/>
    <path d="M25.9813 957.764L41.8955 960.649L109.024 1013.09L278.956 1103.83L271.614 1117.47L122.663 1034.6L25.9813 957.764Z" fill="#EFE8DC" stroke="#171615" stroke-miterlimit="10"/>
    <path d="M292.932 1071.58L278.953 1103.83L284.723 1108.54L297.565 1072.97L292.932 1071.58Z" fill="#EFE8DC" stroke="#171615" stroke-miterlimit="10"/>
    <path d="M277.769 1121.49L284.724 1108.54L285.638 1105.75L365.878 1132.76L413.433 1154.88L328.116 1147.71L277.769 1121.49Z" fill="#EFE8DC" stroke="#171615" stroke-miterlimit="10"/>
    <path d="M29.439 974.111L26.296 987.222L34.4232 991.421L47.0068 998.504L63.0031 1008.73L67.2016 1003.75L29.439 974.111Z" fill="#EFE8DC" stroke="#171615" stroke-miterlimit="10"/>
    <path d="M70.3449 1005.58L63.2615 1011.87L32.5823 1035.21L54.0906 1047.28L55.3924 1053.83L46.7492 1061.96L70.3449 1079.27L81.6268 1070.62L94.7382 1048.06L102.08 1027.87L70.3449 1005.58Z" fill="#EFE8DC" stroke="#171615" stroke-miterlimit="10"/>
    <path d="M23.9265 990.366L56.7049 1010.56L16.5851 1044.12L3.74347 1038.88L23.9265 990.366Z" fill="#EFE8DC" stroke="#171615" stroke-miterlimit="10"/>
    <path d="M105.752 1031.8L102.597 1040.98L131.189 1073.5L149.273 1062.22L105.752 1031.8Z" fill="#EFE8DC" stroke="#171615" stroke-miterlimit="10"/>
    <path d="M154.256 1065.36L135.645 1077.69L150.069 1096.57L162.383 1099.46L172.621 1076.65L154.256 1065.36Z" fill="#EFE8DC" stroke="#171615" stroke-miterlimit="10"/>
    <path d="M177.337 1080.84L168.94 1099.73L198.575 1107.85L213.258 1114.41L219.298 1105.23L177.337 1080.84Z" fill="#EFE8DC" stroke="#171615" stroke-miterlimit="10"/>
    <path d="M222.967 1107.07L204.872 1135.9L230.567 1141.67L241.848 1118.86L222.967 1107.07Z" fill="#EFE8DC" stroke="#171615" stroke-miterlimit="10"/>
    <path d="M247.347 1118.34L238.692 1141.42L262.03 1141.16L267.8 1135.65L267.542 1130.66L247.347 1118.34Z" fill="#EFE8DC" stroke="#171615" stroke-miterlimit="10"/>
    <path d="M275.414 1134.08L270.958 1143.77L288.783 1143.52L275.414 1134.08Z" fill="#EFE8DC" stroke="#171615" stroke-miterlimit="10"/>
    <path d="M130.918 1081.63L145.085 1102.34L164.752 1104.18L147.7 1142.73L101.295 1100.51L130.918 1081.63Z" fill="#EFE8DC" stroke="#171615" stroke-miterlimit="10"/>
    <path d="M101.025 1047.54L89.4855 1070.88L80.8306 1078.48L94.4697 1104.18L101.553 1095.26L127.518 1079L101.025 1047.54Z" fill="#EFE8DC" stroke="#171615" stroke-miterlimit="10"/>
    <path d="M167.897 1104.7L155.829 1144.56L195.961 1154L198.048 1136.17L209.33 1118.86L167.897 1104.7Z" fill="#EFE8DC" stroke="#171615" stroke-miterlimit="10"/>
    <path d="M76.1147 1079.53L57.7612 1095.26L79.7855 1113.35L91.0556 1110.21L76.1147 1079.53Z" fill="#EFE8DC" stroke="#171615" stroke-miterlimit="10"/>
    <path d="M29.4406 1037.31L50.1514 1048.85L49.3657 1052.52L40.7108 1063.28L65.8897 1082.67L50.6792 1094.74L32.0559 1075.07L18.1588 1047.28L29.4406 1037.31Z" fill="#EFE8DC" stroke="#171615" stroke-miterlimit="10"/>
    <path d="M95.7816 1111.78L98.6665 1106.8L137.743 1145.09L110.206 1146.4L95.7816 1111.78Z" fill="#EFE8DC" stroke="#171615" stroke-miterlimit="10"/>
    <path d="M1005.19 1140.63L1039.29 1144.56L1039.81 1167.38L1005.19 1140.63Z" fill="#EFE8DC" stroke="#171615" stroke-miterlimit="10"/>
    <path d="M1063.41 1147.71L1089.37 1149.54L1086.23 1160.83L1056.59 1161.61L1063.41 1147.71Z" fill="#EFE8DC" stroke="#171615" stroke-miterlimit="10"/>
    <path d="M1187.45 1051.99L1155.19 1160.3L1186.92 1165.01L1196.62 1132.5L1235.17 1067.73L1213.4 1056.98H1202.39L1187.45 1051.99Z" fill="#96A596" stroke="#171615" stroke-miterlimit="10"/>
    <path d="M-47.4812 925.255L26.2966 960.918L25.98 957.763L-46.7893 918.605L-47.4812 925.255Z" fill="#EFE8DC" stroke="#171615" stroke-miterlimit="10"/>
    <path d="M-4.82621 957.07L-13.915 977.699L16.1543 988.887L21.7483 970.698L-4.82621 957.07Z" fill="#EFE8DC" stroke="#171615" stroke-miterlimit="10"/>
    <path d="M-32.7963 973.502L-36.9948 982.591L-52.3813 1001.12L-55.1724 1018.96L-4.12255 1034.68L15.8025 994.483L-32.7963 973.502Z" fill="#EFE8DC" stroke="#171615" stroke-miterlimit="10"/>
    <path d="M2.161 1046.58L14.0527 1054.62L25.5926 1077.69L44.8257 1095.53L-25.1055 1140.63L-32.4469 1138.53L2.161 1046.58Z" fill="#EFE8DC" stroke="#171615" stroke-miterlimit="10"/>
    <path d="M52.5216 1099.73L79.4362 1120.69L95.8665 1135.04L27.6944 1138.18L17.5501 1121.4L52.5216 1099.73Z" fill="#EFE8DC" stroke="#171615" stroke-miterlimit="10"/>
    <path d="M82.9296 1116.51L92.0184 1114.76L99.7116 1131.54L82.9296 1116.51Z" fill="#EFE8DC" stroke="#171615" stroke-miterlimit="10"/>
    <path d="M-45.8287 320.373L-20.6497 347.64L-0.196899 386.974L-34.2888 434.705L-57.3568 423.692L-45.8287 320.373Z" fill="#EFE8DC" stroke="#171615" stroke-miterlimit="10"/>
    <path d="M96.3104 155.696L85.8143 179.819L109.938 192.931L110.466 174.049L104.168 155.696H96.3104Z" fill="#EFE8DC" stroke="#171615" stroke-miterlimit="10"/>
    <path d="M91.0561 150.969L81.0994 178.763L24.4555 159.882L30.2254 145.199L41.7653 143.1L91.0561 150.969Z" fill="#EFE8DC" stroke="#171615" stroke-miterlimit="10"/>
    <path d="M22.3569 167.236L107.85 199.229L102.597 217.054L86.8699 246.948L70.0879 299.393L-14.878 271.599L22.3569 167.236Z" fill="#EFE8DC" stroke="#171615" stroke-miterlimit="10"/>
    <path d="M-13.8336 278.412C-13.8336 278.412 -14.3614 296.238 -8.59144 305.163L-0.194533 283.138L-13.8336 278.424V278.412Z" fill="#EFE8DC" stroke="#171615" stroke-miterlimit="10"/>
    <path d="M5.04567 284.71L-2.81177 307.262L20.2563 325.088L40.193 332.957L52.7767 328.758L65.3603 304.635L5.04567 284.71Z" fill="#EFE8DC" stroke="#171615" stroke-miterlimit="10"/>
    <path d="M71.1325 47.6489L62.2195 94.8522L90.5415 85.9393L96.3114 89.61L109.939 77.5424L132.491 71.7724L71.1325 47.6489Z" fill="#EFE8DC" stroke="#171615" stroke-miterlimit="10"/>
    <path d="M37.566 125.802L62.745 124.219L74.8009 132.616L78.9994 109.536L37.566 125.802Z" fill="#EFE8DC" stroke="#171615" stroke-miterlimit="10"/>
    <path d="M0.331207 121.603L-2.81177 134.187L19.2125 131.572L24.4547 122.647L79.5271 102.722L91.583 93.2812H83.1979L0.331207 121.603Z" fill="#EFE8DC" stroke="#171615" stroke-miterlimit="10"/>
    <path d="M-27.9908 166.438L-31.9196 176.148L-2.55385 185.589L1.6446 174.049L-27.9908 166.438Z" fill="#EFE8DC" stroke="#171615" stroke-miterlimit="10"/>
    <path d="M-22.7479 150.184L-26.9464 162.767L2.43108 171.422L6.3598 157.267L1.3756 154.382L-7.79532 156.212L-22.7479 150.184Z" fill="#EFE8DC" stroke="#171615" stroke-miterlimit="10"/>
    <path d="M-3.07855 141.799L2.94939 151.239L8.46133 154.382L15.5447 138.644L-3.07855 141.799Z" fill="#EFE8DC" stroke="#171615" stroke-miterlimit="10"/>
    <path d="M101.295 100.623L86.084 122.389L85.8143 134.714L94.2112 138.643L92.6397 129.988L98.4096 116.619L101.295 100.623Z" fill="#EFE8DC" stroke="#171615" stroke-miterlimit="10"/>
    <path d="M101.026 142.056L110.736 150.453V154.64L120.165 155.168L125.935 152.283L101.026 142.056Z" fill="#EFE8DC" stroke="#171615" stroke-miterlimit="10"/>
    <path d="M62.7471 58.4043L55.1359 96.1669L3.2182 117.663L14.4883 49.2217L62.7471 58.4043Z" fill="#EFE8DC" stroke="#171615" stroke-miterlimit="10"/>
    <path d="M1380.02 30.6088L1402.57 61.546L1463.4 23.2673L1451.86 3.33057L1409.38 13.299L1380.02 30.6088Z" fill="#EFE8DC" stroke="#171615" stroke-miterlimit="10"/>
    <g data-map-pin="3">
        <rect class="hitbox" fill="transparent" pointer-events="all" />
        <path d="M725.885 627.801L720.546 597.81" stroke="black"/>
        <circle cx="721.542" cy="599.408" r="11.5" transform="rotate(13.1042 721.542 599.408)" fill="#C54730" stroke="black"/>
    </g>
    <g data-map-pin="6">
        <rect class="hitbox" fill="transparent" pointer-events="all" />
        <path d="M195.883 970.801L190.544 940.81" stroke="black"/>
        <circle cx="191.54" cy="942.408" r="11.5" transform="rotate(13.1042 191.54 942.408)" fill="#C54730" stroke="black"/>
    </g>
    <g data-map-pin="5">
        <rect class="hitbox" fill="transparent" pointer-events="all" />
        <path d="M1048.88 752.801L1043.54 722.81" stroke="black"/>
        <circle cx="1044.54" cy="724.408" r="11.5" transform="rotate(13.1042 1044.54 724.408)" fill="#C54730" stroke="black"/>
    </g>
    <g data-map-pin="4">
        <rect class="hitbox" fill="transparent" pointer-events="all" />
        <path d="M898.845 629.525L899.15 599.063" stroke="black"/>
        <path d="M904.469 590.295C910.282 592.855 912.918 599.642 910.358 605.455C907.798 611.267 901.01 613.904 895.198 611.343C889.386 608.783 886.749 601.996 889.309 596.183C891.87 590.371 898.657 587.735 904.469 590.295Z" fill="#C54730" stroke="black"/>
    </g>
    <g data-map-pin="2">
        <rect class="hitbox" fill="transparent" pointer-events="all" />
        <path d="M892.612 413.794L880.766 385.728" stroke="black"/>
        <circle cx="882.091" cy="387.066" r="11.5" transform="rotate(0.315351 882.091 387.066)" fill="#C54730" stroke="black"/>
    </g>
        
    <g data-map-pin="1">
        <rect class="hitbox" fill="transparent" pointer-events="all" />
        <path d="M858.21 146.805L861.174 116.487" stroke="black"/>
        <circle cx="861.701" cy="118.295" r="11.5" transform="rotate(28.7822 861.701 118.295)" fill="#C54730" stroke="black"/>
    </g>
    <g id="map-suzie-pin">
        <path d="M1041.36 237.412C1037.8 250.248 1006.31 273.254 1006.31 273.254C1006.31 273.254 991.173 237.364 994.736 224.527C998.299 211.691 1011.62 204.149 1024.51 207.709C1037.39 211.269 1044.93 224.558 1041.36 237.412Z" fill="#C54730" stroke="black" stroke-miterlimit="10"/>
        <path d="M1017.71 242.786C1025 242.786 1030.91 236.888 1030.91 229.613C1030.91 222.339 1025 216.441 1017.71 216.441C1010.42 216.441 1004.51 222.339 1004.51 229.613C1004.51 236.888 1010.42 242.786 1017.71 242.786Z" fill="#EFE8DC" stroke="black" stroke-miterlimit="10"/>
    </g>
    <g id="map-suzie-label">
        <rect x="1058.54" y="239.985" width="146.398" height="43.6556" transform="rotate(-5.26781 1058.54 239.985)" fill="#C54730"/>
        <rect x="1058.54" y="239.985" width="146.398" height="43.6556" transform="rotate(-5.26781 1058.54 239.985)" stroke="#171615"/>
        <path d="M1085.99 251.147C1085.64 253.519 1085.35 255.448 1085.1 258.433L1084.17 258.49C1084.33 256.168 1082.93 255.888 1079.07 256.244C1074.71 256.646 1073.31 257.743 1073.4 258.67C1073.61 260.991 1085.46 257.182 1085.86 261.575C1086.13 264.512 1081.69 270.133 1076.83 270.581C1074.02 270.84 1071.93 270.161 1070.79 269.298C1071.2 266.703 1071.45 263.964 1071.51 261.555L1072.43 261.47C1072.78 265.242 1078.55 266.208 1081.74 265.915C1083.41 265.761 1083.84 265.094 1083.79 264.569C1083.61 262.559 1072.7 262.346 1072.35 258.573C1072.05 255.264 1074.66 251.464 1080.16 250.956C1082.36 250.754 1084.77 250.873 1085.98 251.137L1085.99 251.147Z" fill="#171615"/>
        <path d="M1095.44 252.491L1100.26 252.326C1099.44 255.613 1098.77 259.234 1098.98 261.459C1099.07 262.51 1099.63 262.772 1100.31 262.709C1100.74 262.669 1101.34 262.426 1101.7 260.895L1102.31 261.089C1101.27 266.676 1100.4 268.408 1098.61 268.573C1097.62 268.664 1096.45 267.553 1096.3 265.949C1096.14 264.153 1097.42 260.509 1098.21 258.255L1097.92 258.156C1094.87 264.925 1092.85 269.108 1090.75 269.303C1088.18 269.539 1086.84 268.165 1086.71 266.776C1086.43 263.805 1090.64 260.672 1090.57 259.215C1090.52 258.718 1090 258.459 1088.92 258.558C1087.71 258.669 1086.93 259.02 1086.61 260.297L1086 260.103C1086.98 255.49 1087.94 253.028 1089.67 252.868C1090.75 252.768 1091.98 253.936 1092.14 255.636C1092.32 257.585 1091.02 261.138 1091.13 262.279C1091.21 263.144 1091.96 263.233 1092.92 263.144C1096.98 262.771 1096.69 258.992 1095.44 252.491Z" fill="#171615"/>
        <path d="M1119.48 255.735C1118.3 255.844 1117.52 256.166 1117.23 257.44L1116.59 257.249C1117.57 252.636 1118.53 250.207 1120.29 250.045C1121.38 249.945 1122.57 251.082 1122.73 252.816C1122.89 254.549 1121.46 258.047 1121.6 259.47C1121.67 260.272 1122.25 260.44 1122.74 260.395C1123.39 260.335 1123.76 259.959 1124.15 258.705L1124.73 258.902C1123.76 264.607 1122.42 266.382 1120.63 266.548C1118.83 266.713 1117.42 265.316 1117.3 263.955C1117.03 261.018 1121.17 257.858 1121.06 256.403C1121.02 255.907 1120.53 255.644 1119.47 255.74L1119.48 255.735ZM1119.14 246.996C1118.95 244.924 1120.13 243.847 1122.17 243.659C1123.56 243.53 1124.56 244.185 1124.71 245.766C1124.9 247.929 1123.7 249.071 1121.66 249.259C1120.26 249.388 1119.29 248.668 1119.14 246.996Z" fill="#171615"/>
        <path d="M1141.05 264.323L1141.18 263.405L1142.12 263.069C1143.02 262.768 1143.2 262 1144.17 255.611C1145.54 246.783 1145.45 246.444 1144.66 246.363L1143.85 246.25L1144.01 245.33L1153.14 244.488C1157.65 244.072 1159.36 244.945 1159.57 247.295C1159.79 249.644 1157.07 251.581 1153.88 252.81L1153.89 252.963C1157.85 252.877 1158.88 254.313 1159.07 256.323C1159.41 260.067 1156.12 262.929 1150.96 263.405L1141.06 264.317L1141.05 264.323ZM1151.68 253.763C1151.22 253.806 1150.72 253.881 1150.05 253.977L1149.97 254.485C1149.01 260.627 1148.84 261.918 1148.85 262.636C1151.61 262.164 1153.8 259.497 1153.49 256.187C1153.3 254.143 1152.82 253.658 1151.68 253.763ZM1151.46 245.611C1151.19 246.416 1151.01 247.493 1150.14 253.284C1150.88 253.216 1151.62 253.119 1152.36 253.051L1152.89 253.002C1153.7 251.708 1154.41 249.866 1154.25 248.133C1154.08 246.308 1153.68 245.657 1151.46 245.611Z" fill="#171615"/>
        <path d="M1163.12 244.849C1162.35 244.92 1161.36 245.415 1160.63 245.983L1160.12 245.467C1161.18 243.029 1162.46 241.133 1163.86 241.005C1164.72 240.925 1165.47 241.54 1165.6 242.935C1165.9 246.244 1164.75 252.684 1164.96 255.005C1165.08 256.275 1165.66 256.438 1166.15 256.393C1166.77 256.336 1167.15 256.022 1167.47 254.865L1168.05 255.061C1167.11 260.673 1165.77 262.385 1163.94 262.554C1162.11 262.723 1160.73 261.289 1160.57 259.494C1160.25 256.06 1164.63 248.076 1164.4 245.602C1164.35 245.043 1163.86 244.78 1163.12 244.849L1163.12 244.849Z" fill="#171615"/>
        <path d="M1177.26 244.947L1182.08 244.782C1181.26 248.069 1180.6 251.69 1180.8 253.915C1180.9 254.966 1181.45 255.228 1182.14 255.165C1182.57 255.124 1183.17 254.881 1183.53 253.35L1184.14 253.545C1183.09 259.131 1182.22 260.864 1180.43 261.029C1179.44 261.12 1178.28 260.009 1178.13 258.404C1177.96 256.609 1179.25 252.965 1180.04 250.71L1179.75 250.612C1176.7 257.381 1174.68 261.564 1172.57 261.758C1170 261.995 1168.66 260.621 1168.54 259.231C1168.26 256.261 1172.47 253.128 1172.39 251.671C1172.35 251.174 1171.82 250.914 1170.74 251.014C1169.54 251.125 1168.76 251.476 1168.44 252.753L1167.83 252.559C1168.8 247.946 1169.77 245.483 1171.5 245.324C1172.58 245.224 1173.81 246.392 1173.97 248.092C1174.15 250.04 1172.85 253.593 1172.96 254.735C1173.04 255.599 1173.79 255.688 1174.75 255.6C1178.8 255.226 1178.52 251.448 1177.26 244.946L1177.26 244.947Z" fill="#171615"/>
        <path d="M1191.57 243.473C1194.42 243.21 1196.45 244.651 1196.68 247.119C1196.97 250.252 1193.51 252.685 1185.47 253.427C1185.76 254.522 1187.8 254.71 1189.32 254.57C1191.85 254.336 1195.61 253.209 1196.44 251.669L1197 251.993C1195.61 256.518 1193.11 259.87 1189.74 260.18C1182.48 260.849 1182.25 244.337 1191.57 243.478L1191.57 243.473ZM1185.42 252.959C1191.71 252.379 1193.34 250.876 1193.23 249.648C1193.18 249.066 1192.55 248.652 1191 248.794C1187.88 249.082 1185.52 251.327 1185.42 252.959Z" fill="#171615"/>
        <path d="M1132.27 248.942C1135.11 248.679 1137.15 250.119 1137.37 252.588C1137.66 255.721 1134.2 258.154 1126.16 258.896C1126.45 259.991 1128.5 260.178 1130.01 260.039C1132.54 259.805 1136.31 258.678 1137.13 257.137L1137.69 257.462C1136.3 261.987 1133.8 265.338 1130.43 265.649C1123.18 266.318 1122.94 249.806 1132.26 248.947L1132.27 248.942ZM1126.12 258.428C1132.41 257.848 1134.04 256.344 1133.92 255.117C1133.87 254.534 1133.24 254.121 1131.69 254.263C1128.57 254.551 1126.22 256.795 1126.12 258.428Z" fill="#171615"/>
        <path d="M1109.98 256.863C1109.49 257.283 1108.97 257.361 1108.62 257.392C1107.79 257.469 1106.23 257.55 1105.25 257.641C1103.79 257.775 1103.43 257.933 1103.12 259.272L1102.3 259.222C1103.1 253.938 1103.74 251.447 1105.5 251.284C1108.02 251.052 1109.61 255.023 1111.59 254.84C1113.58 254.657 1115.46 250.949 1115.46 250.949L1116.6 252.038C1114.35 254.162 1108 260.132 1107.37 261.265L1107.46 261.337C1107.9 261.046 1108.61 260.957 1109.1 260.912C1110.09 260.821 1111.63 260.896 1112.71 260.796C1113.88 260.688 1115.1 260.667 1115.43 258.86L1116.18 258.944C1115.5 265.465 1114.19 267.113 1112.7 267.25C1110.18 267.483 1109.18 262.566 1107.15 262.754C1104.73 262.977 1103.98 267.848 1103.98 267.848L1101.95 268.035C1103 264.388 1107.05 260.302 1110.1 256.991L1109.97 256.859L1109.98 256.863Z" fill="#171615"/>
    </g>
</g>
<defs>
<clipPath id="clip0_307_4727">
<rect width="1669.07" height="1202" fill="white" transform="translate(-114.536)"/>
</clipPath>
</defs>
</svg>
